<svg width="67" height="21" viewBox="0 0 67 21" fill="none" xmlns="http://www.w3.org/2000/svg">
<path d="M11.3561 1.98576L10.3906 0.539062C3.71094 4.91504 0 10.232 0 14.6079C0 18.8393 3.192 20.8288 5.90069 20.8288C9.31475 20.8288 11.7266 18.0071 11.7266 15.042C11.7266 12.5467 10.0938 10.4125 7.904 9.61624C7.27344 9.39866 6.67969 9.21811 6.67969 8.16954C6.67969 6.83163 7.68194 4.84329 11.3561 1.98576ZM26.0882 1.98576L25.1228 0.539062C18.5167 4.91504 14.7321 10.232 14.7321 14.6079C14.7321 18.8393 17.9978 20.8288 20.7064 20.8288C24.1573 20.8288 26.6071 18.0071 26.6071 15.042C26.6071 12.5467 24.9375 10.4125 22.6729 9.61624C22.0424 9.39866 21.4854 9.21811 21.4854 8.16954C21.4854 6.83163 22.5245 4.84213 26.087 1.98461L26.0882 1.98576Z" fill="#7BBCF4"/>
<path d="M55.2511 19.3821L56.2166 20.8288C62.8962 16.4528 66.6072 11.1359 66.6072 6.75995C66.6072 2.52864 63.4152 0.539137 60.7065 0.539137C57.2924 0.539136 54.8806 3.36078 54.8806 6.32594C54.8806 8.82121 56.5134 10.9554 58.7032 11.7516C59.3337 11.9692 59.9275 12.1498 59.9275 13.1983C59.9275 14.5363 58.9252 16.5246 55.2511 19.3821ZM40.519 19.3821L41.4844 20.8288C48.0905 16.4528 51.875 11.1359 51.875 6.75995C51.875 2.52864 48.6094 0.539135 45.9007 0.539135C42.4499 0.539134 40 3.36078 40 6.32594C40 8.82121 41.6697 10.9554 43.9342 11.7516C44.5648 11.9692 45.1217 12.1498 45.1217 13.1983C45.1217 14.5363 44.0827 16.5258 40.5202 19.3833L40.519 19.3821Z" fill="#7BBCF4"/>
</svg>
