<svg width="50" height="50" viewBox="0 0 50 50" fill="none" xmlns="http://www.w3.org/2000/svg">
<circle cx="25" cy="25" r="25" fill="#C85959"/>
<path d="M27.6439 34.9414L28.6094 36.4258C35.2891 31.9358 39 26.4805 39 21.9905C39 17.649 35.808 15.6077 33.0993 15.6077C29.6853 15.6077 27.2734 18.5028 27.2734 21.5452C27.2734 24.1055 28.9062 26.2952 31.096 27.1122C31.7266 27.3355 32.3203 27.5207 32.3203 28.5966C32.3203 29.9693 31.3181 32.0095 27.6439 34.9414ZM12.9118 34.9414L13.8772 36.4258C20.4833 31.9358 24.2679 26.4805 24.2679 21.9905C24.2679 17.649 21.0022 15.6077 18.2936 15.6077C14.8427 15.6077 12.3929 18.5028 12.3929 21.5452C12.3929 24.1055 14.0625 26.2952 16.3271 27.1122C16.9576 27.3355 17.5146 27.5207 17.5146 28.5966C17.5146 29.9693 16.4755 32.0107 12.913 34.9426L12.9118 34.9414Z" fill="black"/>
</svg>
