<svg width="199" height="57" viewBox="0 0 199 57" fill="none" xmlns="http://www.w3.org/2000/svg">
<path d="M0.5 52.3756V52.3174V52.2396V52.1613V52.0824V52.0029V51.9229V51.8424V51.7613V51.6797V51.5975V51.5148V51.4315V51.3478V51.2635V51.1787V51.0934V51.0075V50.9211V50.8343V50.7469V50.659V50.5707V50.4818V50.3924V50.3026V50.2122V50.1214V50.0301V49.9383V49.846V49.7533V49.6601V49.5664V49.4723V49.3777V49.2827V49.1872V49.0912V48.9948V48.898V48.8007V48.703V48.6049V48.5063V48.4073V48.3079V48.2081V48.1078V48.0071V47.906V47.8046V47.7027V47.6004V47.4977V47.3946V47.2911V47.1872V47.083V46.9783V46.8733V46.7679V46.6621V46.556V46.4495V46.3426V46.2354V46.1278V46.0198V45.9115V45.8029V45.6939V45.5846V45.4749V45.3649V45.2546V45.1439V45.033V44.9216V44.81V44.6981V44.5858V44.4733V44.3604V44.2472V44.1337V44.02V43.9059V43.7915V43.6769V43.562V43.4468V43.3313V43.2155V43.0995V42.9832V42.8666V42.7498V42.6327V42.5153V42.3977V42.2799V42.1618V42.0435V41.9249V41.8061V41.687V41.5677V41.4482V41.3285V41.2086V41.0884V40.968V40.8474V40.7266V40.6056V40.4844V40.363V40.2414V40.1196V39.9976V39.8754V39.7531V39.6306V39.5078V39.385V39.2619V39.1387V39.0153V38.8918V38.7681V38.6442V38.5202V38.396V38.2717V38.1473V38.0227V37.898V37.7731V37.6482V37.5231V37.3978V37.2725V37.147V37.0214V36.8958V36.77V36.6441V36.5181V36.392V36.2658V36.1395V36.0131V35.8867V35.7602V35.6335V35.5069V35.3801V35.2533V35.1264V34.9994V34.8724V34.7453V34.6182V34.491V34.3638V34.2365V34.1092V33.9819V33.8545V33.7271V33.5997V33.4722V33.3447V33.2173V33.0897V32.9622V32.8347V32.7071V32.5796V32.4521V32.3245V32.197V32.0695V31.942V31.8145V31.687V31.5596V31.4321V31.3048V31.1774V31.0501V30.9228V30.7955V30.6684V30.5412V30.4141V30.2871V30.1601V30.0332V29.9063V29.7795V29.6528V29.5262V29.3996V29.2731V29.1467V29.0204V28.8941V28.768V28.642V28.516V28.3902V28.2645V28.1388V28.0133V27.8879V27.7626V27.6375V27.5124V27.3875V27.2628V27.1381V27.0136V26.8892V26.765V26.6409V26.517V26.3933V26.2696V26.1462V26.0229V25.8998V25.7768V25.654V25.5314V25.409V25.2867V25.1646V25.0428V24.9211V24.7996V24.6783V24.5572V24.4363V24.3156V24.1951V24.0749V23.9548V23.835V23.7154V23.596V23.4769V23.3579V23.2393V23.1208V23.0026V22.8847V22.767V22.6495V22.5323V22.4153V22.2987V22.1822V22.0661V21.9502V21.8346V21.7193V21.6042V21.4894V21.3749V21.2607V21.1468V21.0332V20.9199V20.8069V20.6942V20.5818V20.4697V20.358V20.2465V20.1354V20.0246V19.9141V19.804V19.6942V19.5847V19.4755V19.3667V19.2583V19.1502V19.0425V18.9351V18.828V18.7214V18.6151V18.5091V18.4036V18.2984V18.1936V18.0891V17.9851V17.8814V17.7782V17.6753V17.5728V17.4707V17.3691V17.2678V17.1669V17.0665V16.9665V16.8669V16.7677V16.6689V16.5706V16.4727V16.3752V16.2782V16.1816V16.0855V15.9898V15.8945V15.7997V15.7054V15.6115V15.5181V15.4252V15.3327V15.2407V15.1492V15.0582V14.9676V14.8775V14.7879V14.6988V14.6102V14.5221V14.4345V14.3475V14.2609V14.1748V14.0892V14.0042V13.9197V13.8357V13.7522V13.6693V13.5868V13.505V13.4236V13.3429V13.2626V13.1829V13.1038V13.0252V12.9472V12.8697V12.7928V12.7165V12.6407V12.5655V12.4909V12.4169V12.3434V12.2706V12.1983V12.1266V12.0555V11.9851V11.9152V11.8459V11.7773V11.7092V11.6418V11.575V11.5088V11.4432V11.3783V11.314V11.2503V11.1873V11.1249V11.0631V11.002V10.9416V10.8818V10.8226V10.7642V10.7063V10.6492V10.5927V10.5369V10.4818V10.4273V10.3735V10.3204V10.2681V10.2163V10.1653V10.115V10.0654V10.0165V9.9683V9.92081V9.87404V9.82798V9.78264C0.5 6.12686 2.17522 3.96591 3.84348 2.70375C4.68423 2.06765 5.52727 1.65792 6.16061 1.40754C6.47665 1.28259 6.73863 1.19806 6.91943 1.14525C7.00977 1.11886 7.07966 1.10044 7.1257 1.08889C7.13133 1.08748 7.1366 1.08617 7.14151 1.08496H198.114L184.968 22.8417L184.817 23.0913L184.96 23.3455L198.145 46.7797H7.0836C3.62204 46.7797 1.72595 49.3962 0.71875 51.8175C0.641142 52.004 0.568319 52.1904 0.5 52.3756Z" stroke="white"/>
</svg>
