<svg width="178" height="43" viewBox="0 0 178 43" fill="none" xmlns="http://www.w3.org/2000/svg">
<path d="M15.73 11.9162C15.6743 11.757 15.5649 11.572 15.4017 11.361C15.1407 11.0235 14.8337 10.8227 14.4807 10.7586C14.1488 10.6782 13.6951 10.6583 13.1197 10.6988C12.6238 10.7115 12.2368 10.6906 11.9586 10.636C11.7015 10.5651 11.5149 10.3892 11.3987 10.1083C11.2336 9.764 11.2368 9.44125 11.4084 9.14001C11.5799 8.83876 11.9399 8.47605 12.4884 8.05187L21.4743 1.10185C21.9172 0.759244 22.3118 0.572038 22.6581 0.540233C23.0254 0.492115 23.2988 0.584071 23.4783 0.816101C23.5598 0.92157 23.6342 1.08315 23.7015 1.30085C23.7524 1.49744 23.7635 1.70797 23.7348 1.93242C23.7109 2.11946 23.6707 2.28541 23.6142 2.43026C23.5625 2.53771 23.5318 2.62884 23.5223 2.70366C23.3316 3.15453 23.2205 3.57756 23.189 3.97274C23.1576 4.36792 23.2556 4.86518 23.4832 5.46454L28.8497 18.8104C29.9462 21.5358 30.1593 24.0342 29.4889 26.3058C28.8022 28.5562 27.246 30.6195 24.8202 32.4957C23.196 33.7519 21.6349 34.5885 20.1369 35.0054C18.6437 35.3849 17.3023 35.3942 16.1129 35.0331C14.9234 34.672 13.9616 34.0169 13.2274 33.0677C12.8685 32.6036 12.581 32.1011 12.365 31.5603C11.905 30.399 11.8144 29.3229 12.093 28.332C12.3928 27.3247 12.954 26.503 13.7767 25.8667C14.7259 25.1326 15.6739 24.8545 16.6206 25.0325C17.5674 25.2104 18.3833 25.7424 19.0686 26.6283C19.4112 27.0713 19.6905 27.5632 19.9065 28.1041C20.3386 29.1858 20.3698 30.2068 20 31.167C20.5006 31.1169 20.9724 30.9206 21.4154 30.578C21.8583 30.2354 22.0773 29.7121 22.0722 29.0081C22.0671 28.3041 21.8705 27.4615 21.4826 26.4805L15.73 11.9162Z" fill="#DF4B2D"/>
<path d="M46.7783 7.23012V18.7021C46.7783 20.4781 46.2743 21.8461 45.2663 22.8061C44.2743 23.7661 42.9303 24.2461 41.2343 24.2461C39.4583 24.2461 38.0343 23.7421 36.9623 22.7341C35.8903 21.7261 35.3543 20.2941 35.3543 18.4381H39.4343C39.4343 19.1421 39.5783 19.6781 39.8663 20.0461C40.1543 20.3981 40.5703 20.5741 41.1143 20.5741C41.6103 20.5741 41.9943 20.4141 42.2663 20.0941C42.5383 19.7741 42.6743 19.3101 42.6743 18.7021V7.23012H46.7783ZM57.3893 24.2461C56.1573 24.2461 55.0533 24.0461 54.0773 23.6461C53.1013 23.2461 52.3173 22.6541 51.7253 21.8701C51.1493 21.0861 50.8453 20.1421 50.8133 19.0381H55.1813C55.2453 19.6621 55.4613 20.1421 55.8293 20.4781C56.1973 20.7981 56.6773 20.9581 57.2693 20.9581C57.8773 20.9581 58.3573 20.8221 58.7093 20.5501C59.0613 20.2621 59.2373 19.8701 59.2373 19.3741C59.2373 18.9581 59.0933 18.6141 58.8053 18.3421C58.5333 18.0701 58.1893 17.8461 57.7733 17.6701C57.3733 17.4941 56.7973 17.2941 56.0453 17.0701C54.9573 16.7341 54.0693 16.3981 53.3813 16.0621C52.6933 15.7261 52.1013 15.2301 51.6053 14.5741C51.1093 13.9181 50.8613 13.0621 50.8613 12.0061C50.8613 10.4381 51.4293 9.21412 52.5653 8.33412C53.7013 7.43812 55.1813 6.99012 57.0053 6.99012C58.8613 6.99012 60.3573 7.43812 61.4933 8.33412C62.6293 9.21412 63.2373 10.4461 63.3173 12.0301H58.8773C58.8453 11.4861 58.6453 11.0621 58.2773 10.7581C57.9093 10.4381 57.4373 10.2781 56.8613 10.2781C56.3653 10.2781 55.9653 10.4141 55.6613 10.6861C55.3573 10.9421 55.2053 11.3181 55.2053 11.8141C55.2053 12.3581 55.4613 12.7821 55.9733 13.0861C56.4853 13.3901 57.2853 13.7181 58.3733 14.0701C59.4613 14.4381 60.3413 14.7901 61.0133 15.1261C61.7013 15.4621 62.2933 15.9501 62.7893 16.5901C63.2853 17.2301 63.5333 18.0541 63.5333 19.0621C63.5333 20.0221 63.2853 20.8941 62.7893 21.6781C62.3093 22.4621 61.6053 23.0861 60.6773 23.5501C59.7493 24.0141 58.6533 24.2461 57.3893 24.2461ZM71.3629 7.23012V24.0781H67.2589V7.23012H71.3629ZM85.857 24.0781L82.425 18.9181L79.401 24.0781H74.745L80.145 15.5101L74.625 7.23012H79.401L82.785 12.3181L85.761 7.23012H90.417L85.065 15.7261L90.633 24.0781H85.857ZM99.9893 24.2461C98.7573 24.2461 97.6533 24.0461 96.6773 23.6461C95.7013 23.2461 94.9173 22.6541 94.3253 21.8701C93.7493 21.0861 93.4453 20.1421 93.4133 19.0381H97.7813C97.8453 19.6621 98.0613 20.1421 98.4293 20.4781C98.7973 20.7981 99.2773 20.9581 99.8693 20.9581C100.477 20.9581 100.957 20.8221 101.309 20.5501C101.661 20.2621 101.837 19.8701 101.837 19.3741C101.837 18.9581 101.693 18.6141 101.405 18.3421C101.133 18.0701 100.789 17.8461 100.373 17.6701C99.9733 17.4941 99.3973 17.2941 98.6453 17.0701C97.5573 16.7341 96.6693 16.3981 95.9813 16.0621C95.2933 15.7261 94.7013 15.2301 94.2053 14.5741C93.7093 13.9181 93.4613 13.0621 93.4613 12.0061C93.4613 10.4381 94.0293 9.21412 95.1653 8.33412C96.3013 7.43812 97.7813 6.99012 99.6053 6.99012C101.461 6.99012 102.957 7.43812 104.093 8.33412C105.229 9.21412 105.837 10.4461 105.917 12.0301H101.477C101.445 11.4861 101.245 11.0621 100.877 10.7581C100.509 10.4381 100.037 10.2781 99.4613 10.2781C98.9653 10.2781 98.5653 10.4141 98.2613 10.6861C97.9573 10.9421 97.8053 11.3181 97.8053 11.8141C97.8053 12.3581 98.0613 12.7821 98.5733 13.0861C99.0853 13.3901 99.8853 13.7181 100.973 14.0701C102.061 14.4381 102.941 14.7901 103.613 15.1261C104.301 15.4621 104.893 15.9501 105.389 16.5901C105.885 17.2301 106.133 18.0541 106.133 19.0621C106.133 20.0221 105.885 20.8941 105.389 21.6781C104.909 22.4621 104.205 23.0861 103.277 23.5501C102.349 24.0141 101.253 24.2461 99.9893 24.2461ZM113.963 7.23012V24.0781H109.859V7.23012H113.963ZM129.321 12.5581C129.017 11.9981 128.577 11.5741 128.001 11.2861C127.441 10.9821 126.777 10.8301 126.009 10.8301C124.681 10.8301 123.617 11.2701 122.817 12.1501C122.017 13.0141 121.617 14.1741 121.617 15.6301C121.617 17.1821 122.033 18.3981 122.865 19.2781C123.713 20.1421 124.873 20.5741 126.345 20.5741C127.353 20.5741 128.201 20.3181 128.889 19.8061C129.593 19.2941 130.105 18.5581 130.425 17.5981H125.217V14.5741H134.145V18.3901C133.841 19.4141 133.321 20.3661 132.585 21.2461C131.865 22.1261 130.945 22.8381 129.825 23.3821C128.705 23.9261 127.441 24.1981 126.033 24.1981C124.369 24.1981 122.881 23.8381 121.569 23.1181C120.273 22.3821 119.257 21.3661 118.521 20.0701C117.801 18.7741 117.441 17.2941 117.441 15.6301C117.441 13.9661 117.801 12.4861 118.521 11.1901C119.257 9.87812 120.273 8.86212 121.569 8.14212C122.865 7.40612 124.345 7.03812 126.009 7.03812C128.025 7.03812 129.721 7.52612 131.097 8.50212C132.489 9.47812 133.409 10.8301 133.857 12.5581H129.321ZM156.698 7.23012V24.0781H152.594V13.9741L148.826 24.0781H145.514L141.722 13.9501V24.0781H137.618V7.23012H142.466L147.194 18.8941L151.874 7.23012H156.698ZM171.338 21.1021H165.05L164.042 24.0781H159.746L165.842 7.23012H170.594L176.69 24.0781H172.346L171.338 21.1021ZM170.282 17.9341L168.194 11.7661L166.13 17.9341H170.282Z" fill="white"/>
<path d="M48.1784 35.0712H46.0504L45.6584 36.1562H44.9864L46.7504 31.3052H47.4854L49.2424 36.1562H48.5704L48.1784 35.0712ZM47.9964 34.5532L47.1144 32.0892L46.2324 34.5532H47.9964ZM56.2804 33.6432C56.4577 33.6712 56.6187 33.7436 56.7634 33.8602C56.9127 33.9769 57.0294 34.1216 57.1134 34.2942C57.2021 34.4669 57.2464 34.6512 57.2464 34.8472C57.2464 35.0946 57.1834 35.3186 57.0574 35.5192C56.9314 35.7152 56.7471 35.8716 56.5044 35.9882C56.2664 36.1002 55.9841 36.1562 55.6574 36.1562H53.8374V31.2772H55.5874C55.9187 31.2772 56.2011 31.3332 56.4344 31.4452C56.6677 31.5526 56.8427 31.6996 56.9594 31.8862C57.0761 32.0729 57.1344 32.2829 57.1344 32.5162C57.1344 32.8056 57.0551 33.0459 56.8964 33.2372C56.7424 33.4239 56.5371 33.5592 56.2804 33.6432ZM54.4744 33.3842H55.5454C55.8441 33.3842 56.0751 33.3142 56.2384 33.1742C56.4017 33.0342 56.4834 32.8406 56.4834 32.5932C56.4834 32.3459 56.4017 32.1522 56.2384 32.0122C56.0751 31.8722 55.8394 31.8022 55.5314 31.8022H54.4744V33.3842ZM55.6014 35.6312C55.9187 35.6312 56.1661 35.5566 56.3434 35.4072C56.5207 35.2579 56.6094 35.0502 56.6094 34.7842C56.6094 34.5136 56.5161 34.3012 56.3294 34.1472C56.1427 33.9886 55.8931 33.9092 55.5804 33.9092H54.4744V35.6312H55.6014ZM61.6794 36.1562L60.5174 34.1612H59.7474V36.1562H59.1104V31.2772H60.6854C61.054 31.2772 61.3644 31.3402 61.6164 31.4662C61.873 31.5922 62.0644 31.7626 62.1904 31.9772C62.3164 32.1919 62.3794 32.4369 62.3794 32.7122C62.3794 33.0482 62.2814 33.3446 62.0854 33.6012C61.894 33.8579 61.6047 34.0282 61.2174 34.1122L62.4424 36.1562H61.6794ZM59.7474 33.6502H60.6854C61.0307 33.6502 61.2897 33.5662 61.4624 33.3982C61.635 33.2256 61.7214 32.9969 61.7214 32.7122C61.7214 32.4229 61.635 32.1989 61.4624 32.0403C61.2944 31.8816 61.0354 31.8022 60.6854 31.8022H59.7474V33.6502ZM67.2332 35.0712H65.1052L64.7132 36.1562H64.0412L65.8052 31.3052H66.5402L68.2972 36.1562H67.6252L67.2332 35.0712ZM67.0512 34.5532L66.1692 32.0892L65.2872 34.5532H67.0512ZM70.683 31.2772V36.1562H70.046V31.2772H70.683ZM76.5846 36.1562H75.9476L73.3856 32.2712V36.1562H72.7486V31.2702H73.3856L75.9476 35.1482V31.2702H76.5846V36.1562ZM83.5995 31.3122V36.1562H82.9625V32.5442L81.3525 36.1562H80.9045L79.2875 32.5372V36.1562H78.6505V31.3122H79.3365L81.1285 35.3162L82.9205 31.3122H83.5995ZM86.2968 31.7952V33.4262H88.0748V33.9512H86.2968V35.6312H88.2848V36.1562H85.6598V31.2702H88.2848V31.7952H86.2968ZM93.1126 35.0712H90.9846L90.5926 36.1562H89.9206L91.6846 31.3052H92.4196L94.1766 36.1562H93.5046L93.1126 35.0712ZM92.9306 34.5532L92.0486 32.0892L91.1666 34.5532H92.9306ZM97.4724 36.2053C97.1504 36.2053 96.8611 36.1492 96.6044 36.0372C96.3524 35.9206 96.1541 35.7619 96.0094 35.5612C95.8648 35.3559 95.7901 35.1202 95.7854 34.8542H96.4644C96.4878 35.0829 96.5811 35.2766 96.7444 35.4352C96.9124 35.5892 97.1551 35.6662 97.4724 35.6662C97.7758 35.6662 98.0138 35.5916 98.1864 35.4422C98.3638 35.2882 98.4524 35.0922 98.4524 34.8542C98.4524 34.6676 98.4011 34.5159 98.2984 34.3992C98.1958 34.2826 98.0674 34.1939 97.9134 34.1332C97.7594 34.0726 97.5518 34.0072 97.2904 33.9372C96.9684 33.8532 96.7094 33.7692 96.5134 33.6852C96.3221 33.6012 96.1564 33.4706 96.0164 33.2932C95.8811 33.1112 95.8134 32.8686 95.8134 32.5652C95.8134 32.2992 95.8811 32.0636 96.0164 31.8582C96.1518 31.6529 96.3408 31.4942 96.5834 31.3822C96.8308 31.2702 97.1131 31.2142 97.4304 31.2142C97.8878 31.2142 98.2611 31.3286 98.5504 31.5572C98.8444 31.7859 99.0101 32.0892 99.0474 32.4672H98.3474C98.3241 32.2806 98.2261 32.1172 98.0534 31.9772C97.8808 31.8326 97.6521 31.7602 97.3674 31.7602C97.1014 31.7602 96.8844 31.8302 96.7164 31.9702C96.5484 32.1056 96.4644 32.2969 96.4644 32.5442C96.4644 32.7216 96.5134 32.8662 96.6114 32.9782C96.7141 33.0902 96.8378 33.1766 96.9824 33.2372C97.1318 33.2932 97.3394 33.3586 97.6054 33.4332C97.9274 33.5219 98.1864 33.6106 98.3824 33.6992C98.5784 33.7832 98.7464 33.9162 98.8864 34.0983C99.0264 34.2756 99.0964 34.5182 99.0964 34.8262C99.0964 35.0642 99.0334 35.2882 98.9074 35.4982C98.7814 35.7082 98.5948 35.8786 98.3474 36.0092C98.1001 36.1399 97.8084 36.2053 97.4724 36.2053ZM101.637 31.2772V34.3642C101.637 34.7982 101.742 35.1202 101.952 35.3302C102.167 35.5402 102.463 35.6452 102.841 35.6452C103.214 35.6452 103.506 35.5402 103.716 35.3302C103.931 35.1202 104.038 34.7982 104.038 34.3642V31.2772H104.675V34.3573C104.675 34.7632 104.593 35.1062 104.43 35.3862C104.267 35.6616 104.045 35.8669 103.765 36.0022C103.49 36.1376 103.179 36.2053 102.834 36.2053C102.489 36.2053 102.176 36.1376 101.896 36.0022C101.621 35.8669 101.401 35.6616 101.238 35.3862C101.079 35.1062 101 34.7632 101 34.3573V31.2772H101.637ZM109.286 36.1562L108.124 34.1612H107.354V36.1562H106.717V31.2772H108.292C108.661 31.2772 108.971 31.3402 109.223 31.4662C109.48 31.5922 109.671 31.7626 109.797 31.9772C109.923 32.1919 109.986 32.4369 109.986 32.7122C109.986 33.0482 109.888 33.3446 109.692 33.6012C109.501 33.8579 109.212 34.0282 108.824 34.1122L110.049 36.1562H109.286ZM107.354 33.6502H108.292C108.638 33.6502 108.897 33.5662 109.069 33.3982C109.242 33.2256 109.328 32.9969 109.328 32.7122C109.328 32.4229 109.242 32.1989 109.069 32.0403C108.901 31.8816 108.642 31.8022 108.292 31.8022H107.354V33.6502ZM112.593 31.7952V33.4262H114.371V33.9512H112.593V35.6312H114.581V36.1562H111.956V31.2702H114.581V31.7952H112.593ZM116.623 31.2772H117.33L116.658 32.8662H116.21L116.623 31.2772ZM120.583 36.2053C120.261 36.2053 119.972 36.1492 119.715 36.0372C119.463 35.9206 119.265 35.7619 119.12 35.5612C118.976 35.3559 118.901 35.1202 118.896 34.8542H119.575C119.599 35.0829 119.692 35.2766 119.855 35.4352C120.023 35.5892 120.266 35.6662 120.583 35.6662C120.887 35.6662 121.125 35.5916 121.297 35.4422C121.475 35.2882 121.563 35.0922 121.563 34.8542C121.563 34.6676 121.512 34.5159 121.409 34.3992C121.307 34.2826 121.178 34.1939 121.024 34.1332C120.87 34.0726 120.663 34.0072 120.401 33.9372C120.079 33.8532 119.82 33.7692 119.624 33.6852C119.433 33.6012 119.267 33.4706 119.127 33.2932C118.992 33.1112 118.924 32.8686 118.924 32.5652C118.924 32.2992 118.992 32.0636 119.127 31.8582C119.263 31.6529 119.452 31.4942 119.694 31.3822C119.942 31.2702 120.224 31.2142 120.541 31.2142C120.999 31.2142 121.372 31.3286 121.661 31.5572C121.955 31.7859 122.121 32.0892 122.158 32.4672H121.458C121.435 32.2806 121.337 32.1172 121.164 31.9772C120.992 31.8326 120.763 31.7602 120.478 31.7602C120.212 31.7602 119.995 31.8302 119.827 31.9702C119.659 32.1056 119.575 32.2969 119.575 32.5442C119.575 32.7216 119.624 32.8662 119.722 32.9782C119.825 33.0902 119.949 33.1766 120.093 33.2372C120.243 33.2932 120.45 33.3586 120.716 33.4332C121.038 33.5219 121.297 33.6106 121.493 33.6992C121.689 33.7832 121.857 33.9162 121.997 34.0983C122.137 34.2756 122.207 34.5182 122.207 34.8262C122.207 35.0642 122.144 35.2882 122.018 35.4982C121.892 35.7082 121.706 35.8786 121.458 36.0092C121.211 36.1399 120.919 36.2053 120.583 36.2053ZM126.733 33.7132C126.733 33.2372 126.84 32.8102 127.055 32.4322C127.27 32.0496 127.561 31.7509 127.93 31.5362C128.303 31.3216 128.716 31.2142 129.169 31.2142C129.701 31.2142 130.165 31.3426 130.562 31.5992C130.959 31.8559 131.248 32.2199 131.43 32.6912H130.667C130.532 32.3972 130.336 32.1709 130.079 32.0122C129.827 31.8536 129.524 31.7742 129.169 31.7742C128.828 31.7742 128.523 31.8536 128.252 32.0122C127.981 32.1709 127.769 32.3972 127.615 32.6912C127.461 32.9806 127.384 33.3212 127.384 33.7132C127.384 34.1006 127.461 34.4412 127.615 34.7352C127.769 35.0246 127.981 35.2486 128.252 35.4072C128.523 35.5659 128.828 35.6452 129.169 35.6452C129.524 35.6452 129.827 35.5682 130.079 35.4142C130.336 35.2556 130.532 35.0292 130.667 34.7352H131.43C131.248 35.2019 130.959 35.5636 130.562 35.8202C130.165 36.0722 129.701 36.1983 129.169 36.1983C128.716 36.1983 128.303 36.0932 127.93 35.8832C127.561 35.6686 127.27 35.3722 127.055 34.9942C126.84 34.6162 126.733 34.1892 126.733 33.7132ZM135.57 36.2053C135.118 36.2053 134.705 36.1002 134.331 35.8902C133.958 35.6756 133.662 35.3792 133.442 35.0012C133.228 34.6186 133.12 34.1892 133.12 33.7132C133.12 33.2372 133.228 32.8102 133.442 32.4322C133.662 32.0496 133.958 31.7532 134.331 31.5432C134.705 31.3286 135.118 31.2212 135.57 31.2212C136.028 31.2212 136.443 31.3286 136.816 31.5432C137.19 31.7532 137.484 32.0472 137.698 32.4252C137.913 32.8032 138.02 33.2326 138.02 33.7132C138.02 34.1939 137.913 34.6232 137.698 35.0012C137.484 35.3792 137.19 35.6756 136.816 35.8902C136.443 36.1002 136.028 36.2053 135.57 36.2053ZM135.57 35.6522C135.911 35.6522 136.217 35.5729 136.487 35.4142C136.763 35.2556 136.977 35.0292 137.131 34.7352C137.29 34.4412 137.369 34.1006 137.369 33.7132C137.369 33.3212 137.29 32.9806 137.131 32.6912C136.977 32.3972 136.765 32.1709 136.494 32.0122C136.224 31.8536 135.916 31.7742 135.57 31.7742C135.225 31.7742 134.917 31.8536 134.646 32.0122C134.376 32.1709 134.161 32.3972 134.002 32.6912C133.848 32.9806 133.771 33.3212 133.771 33.7132C133.771 34.1006 133.848 34.4412 134.002 34.7352C134.161 35.0292 134.376 35.2556 134.646 35.4142C134.922 35.5729 135.23 35.6522 135.57 35.6522ZM144.79 31.3122V36.1562H144.153V32.5442L142.543 36.1562H142.095L140.478 32.5372V36.1562H139.841V31.3122H140.527L142.319 35.3162L144.111 31.3122H144.79ZM150.112 32.7052C150.112 33.1112 149.972 33.4496 149.692 33.7202C149.417 33.9862 148.995 34.1192 148.425 34.1192H147.487V36.1562H146.85V31.2772H148.425C148.976 31.2772 149.394 31.4102 149.678 31.6762C149.968 31.9422 150.112 32.2852 150.112 32.7052ZM148.425 33.5942C148.78 33.5942 149.041 33.5172 149.209 33.3632C149.377 33.2092 149.461 32.9899 149.461 32.7052C149.461 32.1032 149.116 31.8022 148.425 31.8022H147.487V33.5942H148.425ZM154.768 35.0712H152.64L152.248 36.1562H151.576L153.34 31.3052H154.075L155.832 36.1562H155.16L154.768 35.0712ZM154.586 34.5532L153.704 32.0892L152.822 34.5532H154.586ZM161.417 36.1562H160.78L158.218 32.2712V36.1562H157.581V31.2702H158.218L160.78 35.1482V31.2702H161.417V36.1562ZM166.899 31.2772L165.31 34.3152V36.1562H164.673V34.3152L163.077 31.2772H163.784L164.988 33.7482L166.192 31.2772H166.899Z" fill="white"/>
<circle cx="26.8936" cy="38.6562" r="3.5" fill="#DEC13C"/>
</svg>
