<svg width="21" height="21" viewBox="0 0 21 21" fill="none" xmlns="http://www.w3.org/2000/svg">
<path d="M9.46706 0.201172C4.52004 0.201172 0.490234 4.2296 0.490234 9.17496C0.490234 14.1203 4.52004 18.1566 9.46706 18.1566C11.5801 18.1566 13.5234 17.4163 15.0593 16.1872L18.7985 19.9232C18.9872 20.104 19.2392 20.2038 19.5006 20.2011C19.762 20.1984 20.0119 20.0936 20.1969 19.9089C20.3819 19.7243 20.4871 19.4746 20.4902 19.2134C20.4932 18.9521 20.3938 18.7 20.2131 18.5111L16.4739 14.7732C17.7044 13.2354 18.4458 11.2897 18.4458 9.17496C18.4458 4.2296 14.4141 0.201172 9.46706 0.201172ZM9.46706 2.19581C13.3358 2.19581 16.4486 5.30759 16.4486 9.17496C16.4486 13.0423 13.3358 16.1619 9.46706 16.1619C5.59837 16.1619 2.48552 13.0423 2.48552 9.17496C2.48552 5.30759 5.59837 2.19581 9.46706 2.19581Z" fill="#677990"/>
</svg>
