<svg width="22" height="13" viewBox="0 0 22 13" fill="none" xmlns="http://www.w3.org/2000/svg">
<path d="M1.39062 5.75C0.976411 5.75 0.640625 6.08579 0.640625 6.5C0.640625 6.91421 0.976411 7.25 1.39062 7.25V5.75ZM21.1059 7.03033C21.3988 6.73744 21.3988 6.26256 21.1059 5.96967L16.3329 1.1967C16.04 0.903806 15.5652 0.903806 15.2723 1.1967C14.9794 1.48959 14.9794 1.96447 15.2723 2.25736L19.5149 6.5L15.2723 10.7426C14.9794 11.0355 14.9794 11.5104 15.2723 11.8033C15.5652 12.0962 16.04 12.0962 16.3329 11.8033L21.1059 7.03033ZM1.39062 7.25H20.5756V5.75H1.39062V7.25Z" fill="white"/>
</svg>
