<svg width="173" height="150" viewBox="0 0 173 150" fill="none" xmlns="http://www.w3.org/2000/svg">
<path d="M51.7829 98.1962L51.3422 100.147L51.7829 98.1962ZM71.4341 51.0136L70.0655 49.5552L71.4341 51.0136ZM171.948 20.0089C172.921 19.4854 173.285 18.2725 172.761 17.2999L164.229 1.45042C163.706 0.477818 162.493 0.1138 161.52 0.637365C160.547 1.16093 160.183 2.37381 160.707 3.34641L168.291 17.4348L154.203 25.0188C153.23 25.5424 152.866 26.7552 153.389 27.7278C153.913 28.7004 155.126 29.0645 156.099 28.5409L171.948 20.0089ZM3.96693 139.188C5.4505 131.131 9.65692 119.512 17.3487 110.862C24.9489 102.315 35.9198 96.6631 51.3422 100.147L52.2236 96.2453C35.1562 92.3898 22.764 98.7522 14.3595 108.204C6.04644 117.553 1.60635 129.919 0.0330665 138.463L3.96693 139.188ZM51.3422 100.147C70.9206 104.57 78.309 116.362 78.6055 126.596C78.9102 137.112 71.9601 146 62.2636 146V150C74.8384 150 82.9542 138.573 82.6038 126.481C82.2453 114.107 73.2577 100.997 52.2236 96.2453L51.3422 100.147ZM62.2636 146C52.5444 146 41.6933 135.791 39.9973 118.54C38.3216 101.494 45.7916 77.8204 72.8027 52.472L70.0655 49.5552C42.4362 75.4837 34.1853 100.304 36.0165 118.931C37.8276 137.354 49.7114 150 62.2636 150V146ZM72.8027 52.472C89.939 36.3906 111.209 27.3441 129.869 22.8127C139.192 20.5488 147.827 19.4207 154.917 19.099C162.061 18.7748 167.473 19.2774 170.425 20.1635L171.575 16.3323C167.977 15.2524 162.032 14.772 154.735 15.1031C147.383 15.4368 138.493 16.6023 128.925 18.9256C109.806 23.5686 87.8441 32.8709 70.0655 49.5552L72.8027 52.472Z" fill="#6967FF"/>
</svg>
