<svg width="344" height="291" viewBox="0 0 344 291" fill="none" xmlns="http://www.w3.org/2000/svg">
<g filter="url(#filter0_d_310_64)">
<rect x="30" y="61" width="228" height="180" rx="20" fill="white"/>
<rect x="32" y="63" width="224" height="176" rx="18" stroke="#315286" stroke-width="4"/>
</g>
<path d="M116.699 175.3C116.699 160.222 128.922 148 143.999 148C159.077 148 171.299 160.222 171.299 175.3M159.599 120.7C159.599 129.315 152.615 136.3 143.999 136.3C135.384 136.3 128.399 129.315 128.399 120.7C128.399 112.084 135.384 105.1 143.999 105.1C152.615 105.1 159.599 112.084 159.599 120.7Z" stroke="#3ABE73" stroke-width="5" stroke-linecap="round" stroke-linejoin="round"/>
<path d="M30 205H258V221C258 232.046 249.046 241 238 241H50C38.9543 241 30 232.046 30 221V205Z" fill="#315286"/>
<rect x="61.1992" y="85" width="48" height="8.4" rx="4.2" fill="#F2F2F2"/>
<rect x="61.1992" y="100.6" width="36" height="8.4" rx="4.2" fill="#F2F2F2"/>
<g clip-path="url(#clip0_310_64)">
<mask id="mask0_310_64" style="mask-type:luminance" maskUnits="userSpaceOnUse" x="274" y="0" width="70" height="70">
<path d="M344 0H274V70H344V0Z" fill="white"/>
</mask>
<g mask="url(#mask0_310_64)">
<path d="M309.001 0.958008C302.268 0.958008 295.686 2.95455 290.088 6.69512C284.49 10.4357 280.127 15.7523 277.55 21.9726C274.974 28.193 274.3 35.0377 275.613 41.6412C276.927 48.2447 280.169 54.3103 284.93 59.0712C289.69 63.832 295.756 67.0742 302.36 68.3877C308.963 69.7012 315.808 69.0271 322.028 66.4505C328.248 63.874 333.565 59.5107 337.306 53.9126C341.046 48.3144 343.043 41.7328 343.043 34.9999C343.032 25.9746 339.442 17.322 333.061 10.9401C326.679 4.55831 318.026 0.968429 309.001 0.958008ZM306.568 6.54492C302.943 10.3778 300.078 14.8644 298.127 19.7662C294.85 18.5553 291.797 16.8085 289.092 14.5971C293.795 9.94991 299.98 7.10032 306.568 6.54492ZM286.723 15.4524L286.765 15.4896C289.876 18.2296 293.464 20.3741 297.35 21.8158C296.034 25.7158 295.309 29.7913 295.202 33.9062H279.389C279.628 27.0923 282.22 20.5715 286.723 15.4524ZM287.852 55.7899C282.667 50.5175 279.647 43.4927 279.389 36.1024H295.202C295.337 40.9078 296.311 45.6525 298.081 50.1221C294.427 51.3817 291.018 53.2613 288.003 55.6784L287.852 55.7899ZM290.392 56.5927C292.989 54.6786 295.867 53.1771 298.923 52.1412C300.834 56.3113 303.421 60.137 306.579 63.4636C300.593 62.9399 294.927 60.5347 290.392 56.5927ZM307.907 61.6874C305.106 58.6734 302.794 55.2398 301.054 51.5112C303.295 50.932 305.593 50.6026 307.907 50.529V61.6874ZM307.907 48.3437C305.29 48.4187 302.691 48.8004 300.163 49.4812C298.458 45.2174 297.518 40.6862 297.387 36.0959H307.907V48.3437ZM307.907 33.9062H297.387C297.499 30.0234 298.189 26.1791 299.437 22.5006C302.19 23.3188 305.037 23.779 307.907 23.8699V33.9062ZM307.907 21.6846C305.293 21.594 302.701 21.1758 300.192 20.4399C302 15.9596 304.615 11.849 307.907 8.31238V21.6846ZM328.907 14.5971C326.303 16.7219 323.375 18.4167 320.236 19.6174C318.311 14.7933 315.498 10.3731 311.943 6.58644C318.345 7.24607 324.33 10.0723 328.907 14.5971ZM310.095 7.80056C313.564 11.4219 316.311 15.6715 318.188 20.3218C315.562 21.1312 312.841 21.5894 310.095 21.6846V7.80056ZM310.095 23.8699C313.092 23.7728 316.063 23.2725 318.928 22.3824C320.174 26.1013 320.859 29.9852 320.96 33.9062H310.095V23.8699ZM310.095 36.0937H320.96C320.846 40.7198 319.917 45.2896 318.215 49.5927C315.569 48.8445 312.842 48.4243 310.095 48.3415V36.0937ZM310.095 50.5312C312.535 50.6123 314.958 50.9794 317.313 51.6249C315.499 55.5218 313.061 59.0965 310.095 62.208V50.5312ZM311.958 63.4068C315.037 60.1263 317.565 56.3692 319.444 52.2812C322.364 53.3086 325.116 54.763 327.61 56.5971C323.213 60.4145 317.749 62.79 311.958 63.4024V63.4068ZM330.15 55.7943L329.999 55.674C327.086 53.3387 323.805 51.5039 320.291 50.2446C322.058 45.7314 323.02 40.9435 323.134 36.0981H338.602C338.346 43.4853 335.33 50.5082 330.15 55.7812V55.7943ZM323.15 33.9193C323.052 29.7611 322.332 25.6408 321.015 21.6955C324.765 20.2557 328.228 18.1586 331.241 15.5027L331.283 15.4656C335.786 20.5847 338.378 27.1054 338.617 33.9193H323.15ZM338.661 34.8074C338.661 34.8774 338.672 34.9431 338.672 35.0131C338.672 35.0831 338.661 35.1509 338.661 35.2187V34.8074Z" fill="#3ABE73"/>
</g>
</g>
<defs>
<filter id="filter0_d_310_64" x="0" y="51" width="288" height="240" filterUnits="userSpaceOnUse" color-interpolation-filters="sRGB">
<feFlood flood-opacity="0" result="BackgroundImageFix"/>
<feColorMatrix in="SourceAlpha" type="matrix" values="0 0 0 0 0 0 0 0 0 0 0 0 0 0 0 0 0 0 127 0" result="hardAlpha"/>
<feOffset dy="20"/>
<feGaussianBlur stdDeviation="15"/>
<feComposite in2="hardAlpha" operator="out"/>
<feColorMatrix type="matrix" values="0 0 0 0 0 0 0 0 0 0 0 0 0 0 0 0 0 0 0.1 0"/>
<feBlend mode="normal" in2="BackgroundImageFix" result="effect1_dropShadow_310_64"/>
<feBlend mode="normal" in="SourceGraphic" in2="effect1_dropShadow_310_64" result="shape"/>
</filter>
<clipPath id="clip0_310_64">
<rect width="70" height="70" fill="white" transform="translate(274)"/>
</clipPath>
</defs>
</svg>
