<svg width="16" height="16" viewBox="0 0 16 16" fill="none" xmlns="http://www.w3.org/2000/svg">
<path d="M15.5703 7.78516C15.5703 12.0848 12.0848 15.5703 7.78516 15.5703C3.48553 15.5703 0 12.0848 0 7.78516C0 3.48553 3.48553 0 7.78516 0C12.0848 0 15.5703 3.48553 15.5703 7.78516Z" fill="#6967FF"/>
<path fill-rule="evenodd" clip-rule="evenodd" d="M11.7111 5.41617C11.9138 5.61886 11.9138 5.94748 11.7111 6.15017L7.26246 10.5988C7.05977 10.8015 6.73115 10.8015 6.52847 10.5988L4.0817 8.15206C3.87902 7.94938 3.87902 7.62076 4.0817 7.41807C4.28439 7.21539 4.61301 7.21539 4.81569 7.41807L6.89546 9.49784L10.9771 5.41617C11.1798 5.21349 11.5084 5.21349 11.7111 5.41617Z" fill="white"/>
</svg>
