<svg width="101" height="101" viewBox="0 0 101 101" fill="none" xmlns="http://www.w3.org/2000/svg">
<path d="M99.169 63.7232C99.169 58.8338 95.8853 54.4807 91.1846 53.1392L77.1519 49.1306V45.026C78.8708 43.4549 80.1997 41.4702 80.9813 39.226C82.9031 39.0326 84.7132 38.1755 86.0232 36.7334C87.3379 35.2881 88.0189 33.3915 88.0236 31.4446H88.0676V22.0087C88.0676 10.7359 78.896 1.56421 67.6232 1.56421C56.3505 1.56421 47.1788 10.7359 47.1788 22.0087V31.4446H47.2228C47.2275 33.3931 47.91 35.2881 49.2232 36.7334C50.5332 38.1739 52.3433 39.031 54.2651 39.226C55.0609 41.5111 56.4228 43.5256 58.1873 45.1093V49.1306L44.1546 53.1392C39.4539 54.4807 36.1702 58.8338 36.1702 63.7232V72.0519C35.1747 71.7972 34.2343 71.3191 33.4857 70.5705L30.0699 67.1547C28.9502 66.0334 28.307 64.4828 28.307 62.8975C28.307 61.3123 28.9502 59.7617 30.0699 58.6404L31.9146 56.7941C33.6445 55.0657 34.5976 52.7665 34.5976 50.3211V50.0207C34.5976 47.8033 33.7924 45.6629 32.333 43.9927L25.4668 36.1452C23.7258 34.1574 21.2159 33.0172 18.5754 33.0172C16.3564 33.0172 14.216 33.8224 12.5459 35.2818L6.61227 40.4747C3.40878 43.2772 1.57193 47.3252 1.57193 51.5808C1.57193 54.1096 2.22772 56.6117 3.46697 58.8165C11.7501 73.5412 23.7479 85.9825 38.1659 94.794L41.7044 96.9564C43.9674 98.3372 46.5639 99.0685 49.2169 99.0685C53.3734 99.0685 57.3255 97.2741 60.0603 94.1477L65.357 88.093C66.818 86.4244 67.6232 84.284 67.6232 82.065C67.6232 81.4312 67.554 80.8053 67.4266 80.1967H99.169V63.7232ZM82.0601 53.8045L76.6062 63.6194L69.9523 58.0742L75.9645 52.062L82.0601 53.8045ZM83.6957 34.6182C83.1531 35.2142 82.4612 35.6341 81.711 35.8889C81.7503 35.4595 81.7771 35.0286 81.7771 34.5899V27.0647C83.4692 27.7064 84.7305 29.1972 84.9003 30.9759C85.0293 32.3284 84.6015 33.6227 83.6957 34.6182ZM67.6232 4.70951C77.1613 4.70951 84.9224 12.4705 84.9224 22.0087V25.2876C83.5306 24.234 81.8022 23.5813 79.9339 23.5813H79.0139C75.131 23.5813 71.4809 22.07 68.7351 19.3241L67.6232 18.2123L66.5113 19.3241C63.7655 22.07 60.1154 23.5813 56.2325 23.5813H55.042V23.586C53.2759 23.6426 51.6482 24.2843 50.3241 25.2876V22.0087C50.3241 12.4705 58.0851 4.70951 67.6232 4.70951ZM51.5507 34.6182C50.6449 33.6227 50.2171 32.33 50.3461 30.9775C50.5159 29.1988 51.7772 27.7079 53.4694 27.0663V34.5899C53.4694 35.0286 53.4961 35.4595 53.5354 35.8889C52.7853 35.6325 52.0933 35.2142 51.5507 34.6182ZM56.6147 34.5899V26.7093C60.6878 26.6228 64.5361 25.1791 67.6232 22.5701C70.7103 25.1791 74.5586 26.6228 78.6318 26.7093V34.5899C78.6318 40.6587 73.6936 45.5984 67.6232 45.5984C61.5528 45.5984 56.6147 40.6587 56.6147 34.5899ZM67.6232 48.7437C69.9209 48.7437 72.0848 48.1823 74.0066 47.2056V49.5725L67.6232 55.9559L61.3326 49.6653V47.2497C63.2308 48.198 65.3617 48.7437 67.6232 48.7437ZM59.3023 52.0824L65.2941 58.0742L58.6402 63.6194L53.2004 53.8265L59.3023 52.0824ZM23.0984 38.2148L29.9645 46.0623C30.9239 47.1585 31.4523 48.5644 31.4523 50.0207V50.3211C31.4523 51.0508 31.3076 51.7537 31.0591 52.419L15.6031 36.9614C16.5042 36.4456 17.5249 36.1625 18.5754 36.1625C20.3085 36.1625 21.9566 36.9111 23.0984 38.2148ZM57.6951 92.0781C55.5563 94.5204 52.466 95.9232 49.2169 95.9232C47.1426 95.9232 45.1123 95.3523 43.3446 94.2703L39.8062 92.1079C25.8473 83.5763 14.2286 71.5314 6.2081 57.2737C5.23306 55.5391 4.71723 53.5702 4.71723 51.5808C4.71723 48.2326 6.16249 45.048 8.68188 42.8431L13.1388 38.9445L29.2285 55.0343L27.8478 56.4167C26.1399 58.123 25.1617 60.4851 25.1617 62.8975C25.1617 65.31 26.1399 67.6721 27.8462 69.3784L31.262 72.7942C32.9919 74.5257 35.2943 75.4787 37.7429 75.4787C40.1915 75.4787 42.4938 74.5257 44.2238 72.7942L45.6061 71.4119L61.6975 87.5032L57.6951 92.0781ZM63.6806 85.0389L48.223 69.5813C48.8867 69.3344 49.5912 69.1881 50.3209 69.1881H50.6197C52.076 69.1881 53.4819 69.7166 54.5781 70.6759L62.4256 77.5421C63.7293 78.6822 64.4779 80.3319 64.4779 82.065C64.4779 83.1171 64.1933 84.1377 63.6806 85.0389ZM96.0237 77.0514H86.5422V66.0428H83.3969V77.0514H66.1135C65.6621 76.3641 65.1274 75.7272 64.4968 75.1752L56.6508 68.309C54.9791 66.848 52.8387 66.0428 50.6197 66.0428H50.3209C47.8754 66.0428 45.5762 66.9943 43.8463 68.7242L42.0016 70.5705C41.2514 71.3191 40.3126 71.7972 39.3171 72.0519V63.7232C39.3171 60.2303 41.6619 57.1228 45.0195 56.1635L50.096 54.7135L57.736 68.4663L66.0506 61.5372V73.9061H69.1959V61.5372L77.512 68.4663L85.1645 54.6915L90.3213 56.165C93.6789 57.1228 96.0237 60.2319 96.0237 63.7248V77.0514Z" fill="white"/>
</svg>
