<svg width="199" height="193" viewBox="0 0 199 193" fill="none" xmlns="http://www.w3.org/2000/svg">
<circle cx="96.5" cy="96.5" r="96.5" fill="url(#paint0_linear_291_234)"/>
<path d="M79.5017 55.7436C79.5017 50.164 84.0274 45.6453 89.6017 45.6453C95.1787 45.6453 99.7027 50.1649 99.7027 55.7436C99.7027 61.3176 95.1787 65.8518 89.6017 65.8518C84.0277 65.8518 79.5017 61.318 79.5017 55.7436ZM131.18 73.3257V139.36H59.9004V89.2H63.8604V114.28H87.9504V118.24H63.8604V135.4H98.2015L98.1804 111.31H77.0604C69.8004 111.31 66.5242 105.826 67.1116 100.497L70.0354 74.5648C70.6228 69.2363 75.4206 65.3938 80.7475 65.9799C83.8195 66.3184 86.3238 68.0193 87.9778 70.3623C88.984 71.7875 92.2533 75.9558 92.2533 75.9558L103.593 69.857L103.128 68.9862C102.819 68.4073 103.037 67.6873 103.616 67.3777C104.195 67.0692 104.915 67.2867 105.224 67.8658L105.689 68.735C107.796 67.6543 110.388 68.4516 111.515 70.5457C112.645 72.6465 111.872 75.2598 109.794 76.4158L111.441 79.4967L137.711 65.2895L139.595 68.7746L131.18 73.3257ZM127.22 135.4V96.46H104.45V87.7816L97.1782 91.7146L95.2936 88.2295L109.35 80.6276L107.702 77.5447L93.17 85.3601C92.5173 85.7119 91.8091 85.8808 91.1082 85.8808C90.137 85.8808 89.1796 85.5561 88.4025 84.9417L86.5456 101.41H101.563C105.163 101.41 108.08 104.328 108.08 107.927V135.4H127.22Z" fill="white"/>
<circle cx="163.5" cy="40.5" r="27.5" fill="#FFDDCA"/>
<path d="M152 32L166 46L196 17" stroke="#6967FF" stroke-width="6"/>
<defs>
<linearGradient id="paint0_linear_291_234" x1="17.1013" y1="153.097" x2="165.312" y2="37.4599" gradientUnits="userSpaceOnUse">
<stop stop-color="#D489DA"/>
<stop offset="1" stop-color="#CBBDFA"/>
</linearGradient>
</defs>
</svg>
