<svg width="51" height="84" viewBox="0 0 51 84" fill="none" xmlns="http://www.w3.org/2000/svg">
<path d="M2.71761 25.41L3.17283 25.2032L2.71761 25.41ZM50.2045 80.2568C50.3453 80.4944 50.2668 80.8011 50.0292 80.9418L46.1579 83.2359C45.9203 83.3766 45.6136 83.2982 45.4728 83.0606C45.3321 82.823 45.4105 82.5163 45.6481 82.3756L49.0893 80.3364L47.0502 76.8952C46.9094 76.6577 46.9879 76.351 47.2254 76.2102C47.463 76.0694 47.7697 76.1479 47.9105 76.3854L50.2045 80.2568ZM18.6199 1.2241C14.9031 2.79408 9.67608 5.89463 6.06872 10.0719C2.47277 14.2359 0.535139 19.3971 3.17283 25.2032L2.26238 25.6168C-0.592128 19.3335 1.56196 13.7606 5.31187 9.41828C9.05036 5.08919 14.4233 1.91118 18.2308 0.302907L18.6199 1.2241ZM3.17283 25.2032C9.90424 40.0203 24.9636 41.4929 31.8132 41.0919L31.8717 42.0902C24.9065 42.498 9.26148 41.0232 2.26238 25.6168L3.17283 25.2032ZM31.8132 41.0919C33.4053 40.9987 34.4846 40.3084 35.0432 39.466C35.6035 38.621 35.6644 37.596 35.1824 36.731C34.7011 35.8674 33.6279 35.0801 31.761 34.8507C29.8904 34.6208 27.2544 34.9597 23.7532 36.3353L23.3876 35.4045C26.983 33.9919 29.7928 33.6013 31.883 33.8581C33.977 34.1155 35.3799 35.0312 36.0559 36.2443C36.7312 37.4561 36.6306 38.8816 35.8766 40.0186C35.121 41.1582 33.7333 41.9812 31.8717 42.0902L31.8132 41.0919ZM23.7532 36.3353C20.409 37.6492 18.5501 40.4917 18.0913 44.2146C17.6303 47.9565 18.5937 52.5669 20.9133 57.2762C25.5495 66.6884 35.5347 76.3526 49.8983 80.0273L49.6504 80.9961C34.987 77.2446 24.7736 67.3762 20.0163 57.7181C17.6392 52.8923 16.6071 48.0832 17.0988 44.0923C17.5929 40.0824 19.6352 36.8788 23.3876 35.4045L23.7532 36.3353Z" fill="white"/>
</svg>
