<svg width="94" height="125" viewBox="0 0 94 125" fill="none" xmlns="http://www.w3.org/2000/svg">
<path d="M66.3135 36.1688L66.2351 34.1703L66.3135 36.1688ZM61.7669 70.3719L63.4674 71.4247L61.7669 70.3719ZM1.30623 107.655C0.501867 108.412 0.463497 109.678 1.22052 110.482L13.5569 123.59C14.3139 124.394 15.5796 124.432 16.384 123.675C17.1884 122.918 17.2267 121.653 16.4697 120.848L5.50406 109.197L17.1554 98.2313C17.9598 97.4742 17.9982 96.2085 17.2411 95.4041C16.4841 94.5998 15.2184 94.5614 14.414 95.3184L1.30623 107.655ZM89.6272 1.14402C90.0632 6.5785 89.3605 14.7637 85.933 21.6119C82.5672 28.3368 76.6071 33.7635 66.2351 34.1703L66.3919 38.1673C78.4532 37.6941 85.6026 31.2092 89.51 23.4022C93.3557 15.7184 94.0899 6.75123 93.6144 0.824157L89.6272 1.14402ZM66.2351 34.1703C52.9621 34.691 46.3963 28.4298 44.5134 22.1364C42.5494 15.5718 45.4481 9.01287 51.304 7.4438L50.2687 3.5801C41.6261 5.89587 38.2675 15.2154 40.6812 23.283C43.1761 31.6218 51.623 38.7466 66.3919 38.1673L66.2351 34.1703ZM51.304 7.4438C57.1822 5.86875 65.7666 10.2916 69.8197 21.0726C73.7997 31.659 73.1475 48.1913 60.0665 69.3191L63.4674 71.4247C76.9951 49.5756 78.1018 31.7355 73.5639 19.665C69.0991 7.78895 58.889 1.27031 50.2687 3.5801L51.304 7.4438ZM60.0665 69.3191C51.7971 82.6754 39.6296 92.2165 28.3421 98.3899C22.7053 101.473 17.3197 103.698 12.8018 105.132C8.23108 106.582 4.70385 107.172 2.73754 107.112L2.61633 111.11C5.25786 111.19 9.29545 110.441 14.0114 108.944C18.7802 107.431 24.4031 105.103 30.2615 101.899C41.9644 95.4987 54.734 85.5304 63.4674 71.4247L60.0665 69.3191Z" fill="#6967FF"/>
</svg>
