<svg width="186" height="186" viewBox="0 0 186 186" fill="none" xmlns="http://www.w3.org/2000/svg">
<path d="M130.415 136.774L135.141 144.04C167.836 122.062 186 95.3599 186 73.3828C186 52.1323 170.376 42.1406 157.118 42.1406C140.407 42.1406 128.602 56.3115 128.602 71.2031C128.602 83.7349 136.594 94.4531 147.312 98.4521C150.398 99.5449 153.305 100.452 153.305 105.718C153.305 112.437 148.399 122.423 130.415 136.774ZM58.3052 136.774L63.0307 144.04C95.3657 122.062 113.89 95.3599 113.89 73.3828C113.89 52.1323 97.9058 42.1406 84.6474 42.1406C67.7563 42.1406 55.7651 56.3115 55.7651 71.2031C55.7651 83.7349 63.9375 94.4531 75.0219 98.4521C78.1084 99.5449 80.8344 100.452 80.8344 105.718C80.8344 112.437 75.7485 122.429 58.311 136.78L58.3052 136.774Z" fill="white"/>
</svg>
