<svg width="199" height="193" viewBox="0 0 199 193" fill="none" xmlns="http://www.w3.org/2000/svg">
<circle cx="96.5" cy="96.5" r="96.5" fill="url(#paint0_linear_291_218)"/>
<path d="M95.9996 93.3887C103.302 93.3887 109.222 87.5435 109.222 80.3331C109.222 73.1228 103.302 67.2776 95.9996 67.2776C88.6971 67.2776 82.7773 73.1228 82.7773 80.3331C82.7773 87.5435 88.6971 93.3887 95.9996 93.3887Z" fill="white"/>
<path d="M75.9427 81.6388C76.3872 81.6388 76.8316 81.6388 77.2761 81.6388C77.2761 81.2221 77.2761 80.861 77.2761 80.4443C77.2842 76.971 78.2641 73.5692 80.1049 70.6238C81.9458 67.6784 84.5742 65.307 87.6927 63.7777C86.7695 61.6514 85.2876 59.815 83.4045 58.4633C81.5214 57.1117 79.3073 56.2953 76.9975 56.1009C74.6876 55.9065 72.3683 56.3413 70.2857 57.3592C68.2032 58.3772 66.4352 59.9401 65.1696 61.8821C63.904 63.8241 63.188 66.0727 63.0976 68.3889C63.0073 70.7052 63.546 73.0026 64.6566 75.0373C65.7671 77.072 67.408 78.7679 69.4049 79.9449C71.4019 81.1219 73.6803 81.736 75.9983 81.7221L75.9427 81.6388Z" fill="white"/>
<path d="M114.776 80.3331C114.776 80.7498 114.776 81.1109 114.776 81.5275C115.221 81.5275 115.665 81.5275 116.11 81.5275C118.397 81.5046 120.636 80.8655 122.59 79.6775C124.545 78.4896 126.143 76.7967 127.216 74.777C128.29 72.7574 128.799 70.4857 128.69 68.201C128.581 65.9164 127.859 63.7034 126.598 61.7948C125.338 59.8863 123.586 58.3528 121.527 57.3559C119.469 56.3589 117.18 55.9354 114.901 56.1298C112.622 56.3242 110.437 57.1294 108.578 58.4606C106.718 59.7918 105.251 61.5997 104.332 63.6942C107.452 65.2175 110.083 67.583 111.928 70.5233C113.774 73.4636 114.761 76.8616 114.776 80.3331Z" fill="white"/>
<path d="M107.916 94.6942C113.439 95.7874 118.779 97.6578 123.777 100.25C124.481 100.637 125.119 101.134 125.666 101.722H140.444V92.222C140.446 91.8576 140.35 91.4994 140.164 91.1861C139.978 90.8728 139.709 90.6163 139.388 90.4442C132.189 86.6784 124.18 84.7239 116.055 84.7498H114.222C113.259 88.6629 111.045 92.1546 107.916 94.6942Z" fill="white"/>
<path d="M64.1381 107.111C64.133 105.712 64.5108 104.338 65.2306 103.139C65.9503 101.939 66.9846 100.959 68.2214 100.305C73.2194 97.7134 78.5596 95.843 84.0825 94.7498C80.9688 92.2318 78.7562 88.7715 77.777 84.8887H75.9436C67.8187 84.8628 59.8099 86.8173 52.6103 90.5831C52.2891 90.7552 52.021 91.0117 51.835 91.325C51.6489 91.6384 51.552 91.9965 51.5547 92.3609V110.111H64.1381V107.111Z" fill="white"/>
<path d="M122.165 123.139H105.609V127.028H122.165V123.139Z" fill="white"/>
<path d="M137.138 108.056H118.055V105.278C118.055 104.541 117.762 103.835 117.241 103.314C116.72 102.793 116.013 102.5 115.277 102.5C114.54 102.5 113.833 102.793 113.313 103.314C112.792 103.835 112.499 104.541 112.499 105.278V108.056H107.11V100.194C103.455 99.427 99.7332 99.0268 95.999 99C87.2316 98.9635 78.5896 101.081 70.8323 105.167C70.4868 105.346 70.1975 105.617 69.9966 105.951C69.7956 106.284 69.6907 106.666 69.6934 107.056V122.639H89.4434V139.556C89.4434 140.292 89.7361 140.999 90.257 141.52C90.7779 142.041 91.4845 142.333 92.2212 142.333H137.138C137.875 142.333 138.581 142.041 139.102 141.52C139.623 140.999 139.916 140.292 139.916 139.556V110.833C139.916 110.097 139.623 109.39 139.102 108.869C138.581 108.348 137.875 108.056 137.138 108.056ZM134.36 136.833H94.999V113.611H112.499V116.139C112.499 116.876 112.792 117.582 113.313 118.103C113.833 118.624 114.54 118.917 115.277 118.917C116.013 118.917 116.72 118.624 117.241 118.103C117.762 117.582 118.055 116.876 118.055 116.139V113.611H134.36V136.833Z" fill="white"/>
<circle cx="163.5" cy="40.5" r="27.5" fill="#FFDDCA"/>
<path d="M152 32L166 46L196 17" stroke="#6967FF" stroke-width="6"/>
<defs>
<linearGradient id="paint0_linear_291_218" x1="17.1013" y1="153.097" x2="165.312" y2="37.4599" gradientUnits="userSpaceOnUse">
<stop stop-color="#D489DA"/>
<stop offset="1" stop-color="#CBBDFA"/>
</linearGradient>
</defs>
</svg>
