<svg width="199" height="193" viewBox="0 0 199 193" fill="none" xmlns="http://www.w3.org/2000/svg">
<circle cx="96.5" cy="96.5" r="96.5" fill="url(#paint0_linear_573_1535)"/>
<path d="M116.351 133.33L100.001 125.14V112.444C100.001 111.649 99.6843 110.886 99.1218 110.323C98.5593 109.761 97.7961 109.444 97.0005 109.444C96.2049 109.444 95.4417 109.761 94.8792 110.323C94.3167 110.886 94.0005 111.649 94.0005 112.444V125.14L77.6505 133.33C77.0015 133.72 76.5242 134.342 76.3145 135.07C76.1048 135.798 76.1782 136.578 76.52 137.254C76.8618 137.93 77.4467 138.452 78.1572 138.714C78.8677 138.977 79.6512 138.961 80.3505 138.67L94.0005 131.86V133C94.0005 133.795 94.3167 134.559 94.8792 135.121C95.4417 135.684 96.2049 136 97.0005 136C97.7961 136 98.5593 135.684 99.1218 135.121C99.6843 134.559 100.001 133.795 100.001 133V131.86L113.651 138.67C114.065 138.892 114.53 139.006 115.001 139C115.555 138.998 116.097 138.843 116.569 138.552C117.04 138.261 117.421 137.845 117.671 137.35C118.026 136.641 118.087 135.821 117.84 135.067C117.593 134.314 117.057 133.69 116.351 133.33Z" fill="white"/>
<path fill-rule="evenodd" clip-rule="evenodd" d="M64 55H130C134.971 55 139 59.0294 139 64V106C139 110.971 134.971 115 130 115H64C59.0294 115 55 110.971 55 106V64C55 59.0294 59.0294 55 64 55ZM118 76H76C75.2043 76 74.4413 75.6839 73.8787 75.1213C73.3161 74.5587 73 73.7957 73 73C73 72.2043 73.3161 71.4413 73.8787 70.8787C74.4413 70.3161 75.2043 70 76 70H118C118.796 70 119.559 70.3161 120.121 70.8787C120.684 71.4413 121 72.2043 121 73C121 73.7957 120.684 74.5587 120.121 75.1213C119.559 75.6839 118.796 76 118 76ZM91 88H76C75.2043 88 74.4413 87.6838 73.8787 87.1213C73.3161 86.5588 73 85.7956 73 85C73 84.2044 73.3161 83.4412 73.8787 82.8787C74.4413 82.3162 75.2043 82 76 82H91C91.7956 82 92.5588 82.3162 93.1213 82.8787C93.6838 83.4412 94 84.2044 94 85C94 85.7956 93.6838 86.5588 93.1213 87.1213C92.5588 87.6838 91.7956 88 91 88ZM73.8787 99.1213C74.4413 99.6838 75.2043 100 76 100H106C106.796 100 107.559 99.6838 108.121 99.1213C108.684 98.5588 109 97.7956 109 97C109 96.2044 108.684 95.4412 108.121 94.8787C107.559 94.3162 106.796 94 106 94H76C75.2043 94 74.4413 94.3162 73.8787 94.8787C73.3161 95.4412 73 96.2044 73 97C73 97.7956 73.3161 98.5588 73.8787 99.1213Z" fill="white"/>
<path d="M94.0005 124V125.14L77.6505 133.33C77.0015 133.721 76.5242 134.342 76.3145 135.07C76.1048 135.798 76.1782 136.578 76.52 137.254C76.8618 137.93 77.4467 138.452 78.1572 138.714C78.8677 138.977 79.6512 138.961 80.3505 138.67L94.0005 131.86V133C94.0005 133.796 94.3167 134.559 94.8792 135.121C95.4417 135.684 96.2049 136 97.0005 136V121C96.2049 121 95.4417 121.316 94.8792 121.879C94.3167 122.441 94.0005 123.204 94.0005 124Z" fill="white"/>
<circle cx="163.5" cy="40.5" r="27.5" fill="#FFDDCA"/>
<path d="M152 32L166 46L196 17" stroke="#6967FF" stroke-width="6"/>
<defs>
<linearGradient id="paint0_linear_573_1535" x1="17.1013" y1="153.097" x2="165.312" y2="37.4599" gradientUnits="userSpaceOnUse">
<stop stop-color="#D489DA"/>
<stop offset="1" stop-color="#CBBDFA"/>
</linearGradient>
</defs>
</svg>
