<svg width="240" height="206" viewBox="0 0 240 206" fill="none" xmlns="http://www.w3.org/2000/svg">
<g clip-path="url(#clip0_1_280)">
<mask id="mask0_1_280" style="mask-type:alpha" maskUnits="userSpaceOnUse" x="0" y="-25" width="189" height="231">
<rect y="-24.0063" width="189" height="230" fill="black"/>
</mask>
<g mask="url(#mask0_1_280)">
<path d="M42.505 30.3604H52.01V27.1769C52.01 25.4187 53.4284 23.9937 55.1783 23.9937C56.9282 23.9937 58.3465 25.4187 58.3465 27.1769V30.3601H96.3666V27.1769C96.3666 25.4187 97.7849 23.9937 99.5348 23.9937C101.285 23.9937 102.703 25.4187 102.703 27.1769V30.3601H140.723V27.1769C140.723 25.4187 142.141 23.9937 143.891 23.9937C145.641 23.9937 147.06 25.4187 147.06 27.1769V30.3601H156.565C161.812 30.3657 166.064 34.6382 166.07 39.9101V100.394C166.07 102.152 164.651 103.577 162.901 103.577C161.152 103.577 159.733 102.151 159.733 100.394V39.9104C159.731 38.1534 158.314 36.7295 156.565 36.7272H147.06V43.6805C151.424 45.2308 154.042 49.7149 153.26 54.2992C152.477 58.8836 148.521 62.2343 143.892 62.2343C139.262 62.2343 135.306 58.8836 134.524 54.2992C133.741 49.7149 136.359 45.2308 140.724 43.6805V36.7269H102.703V43.6801C107.068 45.2305 109.686 49.7145 108.903 54.2989C108.121 58.8832 104.164 62.2339 99.5352 62.2339C94.9059 62.2339 90.9498 58.8832 90.1672 54.2989C89.3845 49.7145 92.0024 45.2305 96.367 43.6801V36.7269H58.3469V43.6801C62.7114 45.2305 65.3293 49.7145 64.5467 54.2989C63.764 58.8832 59.8079 62.2339 55.1786 62.2339C50.5494 62.2339 46.5933 58.8832 45.8106 54.2989C45.0279 49.7145 47.6459 45.2305 52.0104 43.6801V36.7269H42.5054C40.7566 36.7291 39.3394 38.153 39.3372 39.9101V205.444C39.3394 207.201 40.7566 208.625 42.5054 208.627H156.566C158.314 208.625 159.732 207.201 159.734 205.444V160.877C159.734 159.119 161.152 157.694 162.902 157.694C164.652 157.694 166.07 159.119 166.07 160.877V205.444C166.065 210.716 161.812 214.988 156.565 214.994H42.505C37.2579 214.988 33.0056 210.716 33 205.444V39.9104C33.0056 34.6385 37.2579 30.366 42.505 30.3604ZM143.892 55.8269C145.642 55.8269 147.06 54.4018 147.06 52.6437C147.06 50.8855 145.642 49.4604 143.892 49.4604C142.142 49.4604 140.724 50.8855 140.724 52.6437C140.726 54.4007 142.143 55.8246 143.892 55.8269ZM99.5352 55.8269C101.285 55.8269 102.703 54.4018 102.703 52.6437C102.703 50.8855 101.285 49.4604 99.5352 49.4604C97.7853 49.4604 96.367 50.8855 96.367 52.6437C96.3692 54.4007 97.7864 55.8246 99.5352 55.8269ZM55.1783 55.8269C56.9282 55.8269 58.3465 54.4018 58.3465 52.6437C58.3465 50.8855 56.9282 49.4604 55.1783 49.4604C53.4284 49.4604 52.01 50.8855 52.01 52.6437C52.0123 54.4007 53.4295 55.8246 55.1783 55.8269Z" fill="url(#paint0_linear_1_280)"/>
<path d="M143.892 90.8437C143.818 90.8437 143.742 90.8403 143.668 90.8358C142.752 90.7705 141.909 90.3087 141.358 89.5704L131.853 76.8372C131.174 75.9277 131.029 74.7232 131.474 73.6772C131.918 72.6311 132.884 71.9029 134.008 71.7668C135.131 71.6306 136.242 72.107 136.921 73.0165L144.236 82.8138L147.989 79.0431C149.229 77.8191 151.22 77.8284 152.449 79.0632C153.678 80.298 153.687 82.2979 152.469 83.5442L146.132 89.911C145.538 90.5083 144.732 90.844 143.892 90.8437Z" fill="url(#paint1_linear_1_280)"/>
<path d="M152.469 118.561L146.132 124.928C145.538 125.525 144.732 125.861 143.892 125.86C143.817 125.86 143.742 125.857 143.667 125.853C142.751 125.787 141.909 125.325 141.358 124.587L131.853 111.854C130.803 110.448 131.086 108.453 132.485 107.398C133.885 106.343 135.871 106.627 136.921 108.033L144.235 117.831L147.989 114.06C149.229 112.836 151.219 112.845 152.448 114.08C153.678 115.315 153.687 117.315 152.469 118.561Z" fill="url(#paint2_linear_1_280)"/>
<path d="M121.713 87.6604H48.8415C47.0916 87.6604 45.6732 86.2354 45.6732 84.4772C45.6732 82.7191 47.0916 81.294 48.8415 81.294H121.713C123.463 81.294 124.882 82.7191 124.882 84.4772C124.882 86.2354 123.463 87.6604 121.713 87.6604Z" fill="url(#paint3_linear_1_280)"/>
<path d="M121.713 122.677H48.8415C47.0916 122.677 45.6732 121.252 45.6732 119.494C45.6732 117.735 47.0916 116.31 48.8415 116.31H121.713C123.463 116.31 124.882 117.735 124.882 119.494C124.882 121.252 123.463 122.677 121.713 122.677Z" fill="url(#paint4_linear_1_280)"/>
<path d="M121.713 157.694H48.8415C47.0916 157.694 45.6732 156.269 45.6732 154.51C45.6732 152.752 47.0916 151.327 48.8415 151.327H121.713C123.463 151.327 124.882 152.752 124.882 154.51C124.882 156.269 123.463 157.694 121.713 157.694Z" fill="url(#paint5_linear_1_280)"/>
<path d="M121.713 192.71H48.8415C47.0916 192.71 45.6732 191.285 45.6732 189.527C45.6732 187.769 47.0916 186.344 48.8415 186.344H121.713C123.463 186.344 124.882 187.769 124.882 189.527C124.882 191.285 123.463 192.71 121.713 192.71Z" fill="url(#paint6_linear_1_280)"/>
<path d="M145.276 154.437L142.963 156.761C142.165 157.574 140.994 157.895 139.895 157.602C138.796 157.309 137.938 156.447 137.646 155.343C137.354 154.238 137.674 153.062 138.484 152.26L140.738 149.995C140.802 143.821 143.147 137.891 147.317 133.356L174.842 103.395C176.537 101.555 178.868 100.436 181.358 100.268C181.543 100.253 181.72 100.205 181.907 100.201H181.908C183.905 100.186 185.862 100.756 187.54 101.841C188.1 102.209 188.621 102.634 189.094 103.109C192.86 106.872 192.981 112.956 189.368 116.867L162.168 146.473C157.776 151.225 151.721 154.08 145.276 154.437ZM184.712 112.549C185.668 111.509 185.92 109.999 185.356 108.703C184.792 107.406 183.517 106.567 182.108 106.566L182.034 106.568C181.069 106.583 180.152 106.997 179.5 107.713L177.181 110.238L182.2 115.282L184.712 112.549ZM172.879 114.919L151.974 137.673C149.382 140.487 147.721 144.038 147.221 147.839C151.173 147.111 154.784 145.117 157.512 142.155L177.9 119.964L172.879 114.919Z" fill="url(#paint7_linear_1_280)"/>
</g>
</g>
<defs>
<linearGradient id="paint0_linear_1_280" x1="83" y1="23.9937" x2="173.22" y2="132.43" gradientUnits="userSpaceOnUse">
<stop stop-color="#71124D"/>
<stop offset="1" stop-color="#5049B0"/>
</linearGradient>
<linearGradient id="paint1_linear_1_280" x1="83" y1="23.9937" x2="173.22" y2="132.43" gradientUnits="userSpaceOnUse">
<stop stop-color="#71124D"/>
<stop offset="1" stop-color="#5049B0"/>
</linearGradient>
<linearGradient id="paint2_linear_1_280" x1="83" y1="23.9937" x2="173.22" y2="132.43" gradientUnits="userSpaceOnUse">
<stop stop-color="#71124D"/>
<stop offset="1" stop-color="#5049B0"/>
</linearGradient>
<linearGradient id="paint3_linear_1_280" x1="83" y1="23.9937" x2="173.22" y2="132.43" gradientUnits="userSpaceOnUse">
<stop stop-color="#71124D"/>
<stop offset="1" stop-color="#5049B0"/>
</linearGradient>
<linearGradient id="paint4_linear_1_280" x1="83" y1="23.9937" x2="173.22" y2="132.43" gradientUnits="userSpaceOnUse">
<stop stop-color="#71124D"/>
<stop offset="1" stop-color="#5049B0"/>
</linearGradient>
<linearGradient id="paint5_linear_1_280" x1="83" y1="23.9937" x2="173.22" y2="132.43" gradientUnits="userSpaceOnUse">
<stop stop-color="#71124D"/>
<stop offset="1" stop-color="#5049B0"/>
</linearGradient>
<linearGradient id="paint6_linear_1_280" x1="83" y1="23.9937" x2="173.22" y2="132.43" gradientUnits="userSpaceOnUse">
<stop stop-color="#71124D"/>
<stop offset="1" stop-color="#5049B0"/>
</linearGradient>
<linearGradient id="paint7_linear_1_280" x1="83" y1="23.9937" x2="173.22" y2="132.43" gradientUnits="userSpaceOnUse">
<stop stop-color="#71124D"/>
<stop offset="1" stop-color="#5049B0"/>
</linearGradient>
<clipPath id="clip0_1_280">
<rect width="240" height="240" fill="white" transform="matrix(-1 0 0 1 240 -0.00634766)"/>
</clipPath>
</defs>
</svg>
