<svg width="199" height="193" viewBox="0 0 199 193" fill="none" xmlns="http://www.w3.org/2000/svg">
<circle cx="96.5" cy="96.5" r="96.5" fill="url(#paint0_linear_291_243)"/>
<path d="M134.894 77.6125C134.894 77.3187 135.188 77.025 135.188 76.7312C135.188 76.7312 135.188 76.7312 135.188 76.4375C135.188 76.4375 135.188 76.4375 135.188 76.1437C135.188 75.85 135.188 75.5562 135.188 75.2625C135.188 75.2625 135.188 75.2625 135.188 74.9687C135.188 74.675 134.894 74.3812 134.894 74.0875C134.6 73.7937 134.6 73.7937 134.306 73.5L101.994 52.9375C101.113 52.35 99.6438 52.35 98.7625 52.9375L60.575 79.375L60.2812 79.6687C60.2812 79.6687 60.2813 79.6687 59.9875 79.6687C59.6938 79.9625 59.6938 80.2562 59.4 80.55C59.4 80.55 59.4 80.55 59.4 80.8437C58.8125 81.725 58.8125 82.0187 58.8125 82.3125V99.9375V117.562C58.8125 118.444 59.4 119.619 60.2812 119.912L92.5938 140.475C93.1813 140.769 93.7687 141.062 94.0625 141.062C94.65 141.062 95.2375 140.769 95.825 140.475L134.013 114.037C134.6 113.45 135.188 112.862 135.188 111.981C135.188 111.1 134.894 110.219 134.306 109.631C131.663 106.987 131.075 103.169 132.838 99.6437L134.894 95.2375C134.894 94.9437 135.188 94.65 135.188 94.3562V94.0625C135.188 93.7687 135.188 93.1812 134.894 92.8875V92.5937C134.894 92.3 134.6 92.0062 134.306 91.7125C131.663 89.0687 131.075 85.25 132.838 81.725L134.894 77.6125ZM128.138 93.475L94.0625 116.975L64.6875 98.4687V87.8937L92.5938 105.519C93.1813 105.812 93.7687 106.106 94.0625 106.106C94.65 106.106 95.2375 105.812 95.825 105.519L126.081 84.6625C125.787 87.6 126.375 90.5375 128.138 93.475ZM94.0625 134.6L64.6875 116.094V105.519L92.5938 123.144C93.1813 123.437 93.7687 123.731 94.0625 123.731C94.65 123.731 95.2375 123.437 95.825 123.144L126.081 102.287C125.787 105.519 126.375 108.75 128.138 111.394L94.0625 134.6Z" fill="white"/>
<circle cx="163.5" cy="40.5" r="27.5" fill="#FFDDCA"/>
<path d="M152 32L166 46L196 17" stroke="#6967FF" stroke-width="6"/>
<defs>
<linearGradient id="paint0_linear_291_243" x1="17.1013" y1="153.097" x2="165.312" y2="37.4599" gradientUnits="userSpaceOnUse">
<stop stop-color="#D489DA"/>
<stop offset="1" stop-color="#CBBDFA"/>
</linearGradient>
</defs>
</svg>
