<svg width="30" height="30" viewBox="0 0 30 30" fill="none" xmlns="http://www.w3.org/2000/svg">
<path d="M30 15C30 23.2843 23.2843 30 15 30C6.71573 30 0 23.2843 0 15C0 6.71573 6.71573 0 15 0C23.2843 0 30 6.71573 30 15Z" fill="white"/>
<path fill-rule="evenodd" clip-rule="evenodd" d="M22.5651 10.4357C22.9556 10.8262 22.9556 11.4594 22.5651 11.8499L13.9937 20.4214C13.6031 20.8119 12.97 20.8119 12.5794 20.4214L7.86516 15.7071C7.47463 15.3165 7.47463 14.6834 7.86516 14.2929C8.25568 13.9023 8.88885 13.9023 9.27937 14.2929L13.2866 18.3L21.1509 10.4357C21.5414 10.0452 22.1746 10.0452 22.5651 10.4357Z" fill="black"/>
</svg>
