<svg width="40" height="43" viewBox="0 0 40 43" fill="none" xmlns="http://www.w3.org/2000/svg">
<path d="M15.73 11.9162C15.6743 11.757 15.5649 11.572 15.4017 11.361C15.1407 11.0235 14.8337 10.8227 14.4807 10.7586C14.1488 10.6782 13.6951 10.6583 13.1197 10.6988C12.6238 10.7115 12.2368 10.6906 11.9586 10.636C11.7015 10.5651 11.5149 10.3892 11.3987 10.1083C11.2336 9.764 11.2368 9.44125 11.4084 9.14001C11.5799 8.83876 11.9399 8.47605 12.4884 8.05187L21.4743 1.10185C21.9172 0.759244 22.3118 0.572038 22.6581 0.540233C23.0254 0.492115 23.2988 0.584071 23.4783 0.816101C23.5598 0.92157 23.6342 1.08315 23.7015 1.30085C23.7524 1.49744 23.7635 1.70797 23.7348 1.93242C23.7109 2.11946 23.6707 2.28541 23.6142 2.43026C23.5625 2.53771 23.5318 2.62884 23.5223 2.70366C23.3316 3.15453 23.2205 3.57756 23.189 3.97274C23.1576 4.36792 23.2556 4.86518 23.4832 5.46454L28.8497 18.8104C29.9462 21.5358 30.1593 24.0342 29.4889 26.3058C28.8022 28.5562 27.246 30.6195 24.8202 32.4957C23.196 33.7519 21.6349 34.5885 20.1369 35.0054C18.6437 35.3849 17.3023 35.3942 16.1129 35.0331C14.9234 34.672 13.9616 34.0169 13.2274 33.0677C12.8685 32.6036 12.581 32.1011 12.365 31.5603C11.905 30.399 11.8144 29.3229 12.093 28.332C12.3928 27.3247 12.954 26.503 13.7767 25.8667C14.7259 25.1326 15.6739 24.8545 16.6206 25.0325C17.5674 25.2104 18.3833 25.7424 19.0686 26.6283C19.4112 27.0713 19.6905 27.5632 19.9065 28.1041C20.3386 29.1858 20.3698 30.2068 20 31.167C20.5006 31.1169 20.9724 30.9206 21.4154 30.578C21.8583 30.2354 22.0773 29.7121 22.0722 29.0081C22.0671 28.3041 21.8705 27.4615 21.4826 26.4805L15.73 11.9162Z" fill="#DF4B2D"/>
<circle cx="26.8945" cy="38.6572" r="3.5" fill="#DEC13C"/>
</svg>
