<svg width="59" height="59" viewBox="0 0 59 59" fill="none" xmlns="http://www.w3.org/2000/svg">
<path d="M26.8063 4.15976C28.071 2.20665 30.929 2.20665 32.1937 4.15977C33.1768 5.67783 35.2194 6.08414 36.7086 5.05783C38.6245 3.7374 41.2649 4.83107 41.686 7.11952C42.0133 8.89823 43.7449 10.0553 45.5135 9.67699C47.7889 9.19026 49.8097 11.2111 49.323 13.4865C48.9447 15.2551 50.1018 16.9867 51.8805 17.314C54.1689 17.7351 55.2626 20.3755 53.9422 22.2914C52.9159 23.7806 53.3222 25.8232 54.8402 26.8063C56.7934 28.071 56.7934 30.929 54.8402 32.1937C53.3222 33.1768 52.9159 35.2194 53.9422 36.7086C55.2626 38.6245 54.1689 41.2649 51.8805 41.686C50.1018 42.0133 48.9447 43.7449 49.323 45.5135C49.8097 47.7889 47.7889 49.8097 45.5135 49.323C43.7449 48.9447 42.0133 50.1018 41.686 51.8805C41.2649 54.1689 38.6245 55.2626 36.7086 53.9422C35.2194 52.9159 33.1768 53.3222 32.1937 54.8402C30.929 56.7934 28.071 56.7934 26.8063 54.8402C25.8232 53.3222 23.7806 52.9159 22.2914 53.9422C20.3755 55.2626 17.7351 54.1689 17.314 51.8805C16.9867 50.1018 15.2551 48.9447 13.4865 49.323C11.2111 49.8097 9.19026 47.7889 9.67699 45.5135C10.0553 43.7449 8.89823 42.0133 7.11952 41.686C4.83107 41.2649 3.7374 38.6245 5.05783 36.7086C6.08414 35.2194 5.67783 33.1768 4.15977 32.1937C2.20665 30.929 2.20665 28.071 4.15976 26.8063C5.67783 25.8232 6.08414 23.7806 5.05783 22.2914C3.7374 20.3755 4.83107 17.7351 7.11952 17.314C8.89823 16.9867 10.0553 15.2551 9.67699 13.4865C9.19026 11.2111 11.2111 9.19026 13.4865 9.67699C15.2551 10.0553 16.9867 8.89823 17.314 7.11952C17.7351 4.83107 20.3755 3.7374 22.2914 5.05783C23.7806 6.08414 25.8232 5.67783 26.8063 4.15976Z" fill="#FFBB00"/>
<path opacity="0.8" d="M22.4845 28.2115L25.9557 36.2187L24.6654 36.7781L18.5281 32.9595L18.4616 32.9883L20.826 38.4425L19.3755 39.0713L15.9043 31.0641L17.2023 30.5013L23.3375 34.3255L23.4079 34.295L21.0417 28.8369L22.4845 28.2115ZM28.0867 35.2949L24.6155 27.2877L29.8233 25.03L30.3504 26.246L26.5931 27.8748L27.5355 30.0486L31.0231 28.5368L31.5502 29.7527L28.0626 31.2646L29.0101 33.4502L32.7987 31.8078L33.3258 33.0237L28.0867 35.2949ZM37.01 31.4266L31.2789 24.399L32.8389 23.7227L36.8325 28.9815L36.9068 28.9493L35.8964 22.3973L37.3156 21.782L41.4126 27.0007L41.483 26.9702L40.3731 20.4566L41.9331 19.7803L43.1445 28.7672L41.7135 29.3876L37.6749 24.4641L37.6123 24.4913L38.441 30.8062L37.01 31.4266Z" fill="black"/>
</svg>
