<svg width="1500" height="1991" viewBox="0 0 1500 1991" fill="none" xmlns="http://www.w3.org/2000/svg">
<g opacity="0.8" filter="url(#filter0_i_2460_26)">
<path d="M1496.2 1986.52C1532.93 1998.56 1572.48 1978.54 1584.52 1941.8C1596.56 1905.07 1576.54 1865.52 1539.8 1853.48L1496.2 1986.52ZM1174 1232L1116.73 1191.75L1174 1232ZM774 904L844 904L774 904ZM372.037 539.703L340.575 602.234L372.037 539.703ZM1539.8 1853.48C1557.17 1859.17 1565.93 1870.14 1567.19 1871.69C1569.57 1874.6 1570.22 1876.19 1569.4 1874.64C1567.86 1871.69 1564.97 1865.07 1560.84 1853.35C1552.76 1830.43 1543.11 1797.3 1531.8 1756.07C1509.68 1675.49 1482.04 1566.96 1451.49 1467.05C1421.55 1369.16 1385.66 1268.36 1343.67 1205.71C1324.37 1176.9 1292.12 1137.98 1243.48 1129.09C1184.64 1118.34 1142.01 1155.78 1116.73 1191.75L1231.27 1272.25C1244.5 1253.43 1239.9 1270.76 1218.32 1266.81C1206.95 1264.73 1211.22 1259.55 1227.38 1283.66C1256.32 1326.84 1287.2 1408.59 1317.61 1507.99C1347.39 1605.37 1373.67 1708.88 1396.79 1793.12C1408.09 1834.3 1418.89 1871.77 1428.81 1899.9C1433.67 1913.71 1439.17 1927.73 1445.37 1939.56C1448.42 1945.4 1452.78 1952.91 1458.69 1960.16C1463.5 1966.05 1475.63 1979.78 1496.2 1986.52L1539.8 1853.48ZM1116.73 1191.75C1073.33 1253.5 1036.32 1297.14 1005.27 1326.6C973.679 1356.58 951.725 1368.54 938.85 1372.54C928.719 1375.69 926.211 1373.64 924.932 1372.88C920.843 1370.45 911.978 1362.63 901.401 1341.83C879.917 1299.56 864.65 1230.59 855.453 1147.25C846.476 1065.9 844 978.417 844 904L704 904C704 980.863 706.525 1074.05 716.298 1162.6C725.85 1249.16 743.082 1339.32 776.598 1405.26C793.521 1438.56 817.78 1472.11 853.535 1493.31C892.1 1516.17 936.154 1519.99 980.398 1506.24C1021.9 1493.34 1062.13 1465.64 1101.63 1428.16C1141.68 1390.16 1184.67 1338.55 1231.27 1272.25L1116.73 1191.75ZM844 904C844 808.004 827.553 732.744 794.249 674.202C760.133 614.233 712.028 578.289 661.324 555.143C613.041 533.101 559.976 521.809 516.936 512.068C470.732 501.611 434.162 492.6 403.5 477.172L340.575 602.234C388.894 626.545 442.06 638.663 486.033 648.615C533.169 659.283 570.722 667.68 603.184 682.499C633.225 696.213 655.993 714.303 672.563 743.429C689.945 773.984 704 822.883 704 904L844 904ZM403.5 477.172C368.457 459.54 328.19 422.202 283.99 369.149C240.683 317.169 199.065 256.979 158.891 199.315C120.556 144.291 80.9007 87.5062 45.2579 51.4619C28.4468 34.4614 3.97684 12.9221 -26.4932 4.11736C-43.6274 -0.833817 -64.4329 -2.25738 -85.9889 5.16263C-107.31 12.5016 -122.873 26.2572 -133.682 40.4451L-22.3182 125.287C-24.1263 127.66 -29.8098 133.887 -40.4222 137.54C-51.2699 141.274 -60.5386 140.007 -65.3581 138.615C-71.1987 136.927 -67.9274 136.11 -54.29 149.901C-29.0357 175.44 3.03484 220.516 44.0202 279.345C83.1668 335.534 128.463 401.19 176.428 458.763C223.501 515.263 278.864 571.184 340.575 602.234L403.5 477.172Z" fill="url(#paint0_linear_2460_26)"/>
</g>
<defs>
<filter id="filter0_i_2460_26" x="-133.684" y="-0.000488281" width="1721.7" height="2000.02" filterUnits="userSpaceOnUse" color-interpolation-filters="sRGB">
<feFlood flood-opacity="0" result="BackgroundImageFix"/>
<feBlend mode="normal" in="SourceGraphic" in2="BackgroundImageFix" result="shape"/>
<feColorMatrix in="SourceAlpha" type="matrix" values="0 0 0 0 0 0 0 0 0 0 0 0 0 0 0 0 0 0 127 0" result="hardAlpha"/>
<feOffset dy="10"/>
<feGaussianBlur stdDeviation="15"/>
<feComposite in2="hardAlpha" operator="arithmetic" k2="-1" k3="1"/>
<feColorMatrix type="matrix" values="0 0 0 0 0.6 0 0 0 0 0.88 0 0 0 0 1 0 0 0 1 0"/>
<feBlend mode="normal" in2="shape" result="effect1_innerShadow_2460_26"/>
</filter>
<linearGradient id="paint0_linear_2460_26" x1="1385.99" y1="1188.17" x2="-272.723" y2="1034.99" gradientUnits="userSpaceOnUse">
<stop stop-color="#1881E1"/>
<stop offset="0.512886" stop-color="#CE1818" stop-opacity="0.560874"/>
<stop offset="1" stop-color="#3D8BD2"/>
</linearGradient>
</defs>
</svg>
