<svg width="1500" height="374" viewBox="0 0 1500 374" fill="none" xmlns="http://www.w3.org/2000/svg">
<path d="M-22 374C-22 290.392 34.4013 227.201 82.9919 227.201C165.877 227.201 232.685 222.438 255.92 190.718C303.269 126.078 337.931 90.3347 461.278 126.078C763.305 213.599 809.701 150.761 863.227 135.126C889.183 127.544 1052.72 50 1104.09 50C1182.32 50 1189.69 122.477 1287.31 126.078C1432.9 131.449 1442.66 276.618 1522 286.509" stroke="#5D26A3" stroke-width="100"/>
<path d="M-22 374C-22 321.1 34.4013 281.118 82.9919 281.118C165.877 281.118 232.685 278.104 255.92 258.035C303.269 217.136 337.931 194.52 461.278 217.136C763.305 272.512 809.701 232.753 863.227 222.861C889.183 218.063 1052.72 169 1104.09 169C1182.32 169 1189.69 214.857 1287.31 217.136C1432.9 220.534 1442.66 312.385 1522 318.643" stroke="#6967FF" stroke-width="100"/>
</svg>
