<svg width="663" height="635" viewBox="0 0 663 635" fill="none" xmlns="http://www.w3.org/2000/svg">
<path d="M15 6C33.7224 55.4371 98.8764 155.092 209.713 158.214C348.259 162.117 331.409 45.0293 258.391 52.8352C185.374 60.6411 147.929 145.631 197.544 216.758C235.889 271.73 314.559 296.768 370.726 322.138C426.893 347.507 496.166 372.876 503.655 439.225C513.677 528.017 424.085 534.847 391.321 493.867C366.38 462.671 336.089 339.317 436.254 268.472C534.547 198.951 665.604 207.001 821 333.846" stroke="#6967FF" stroke-width="30"/>
<circle opacity="0.2" cx="358" cy="168" r="15" fill="#FFEC40"/>
<circle opacity="0.2" cx="558" cy="323" r="35" fill="#FF7456"/>
<circle cx="438" cy="615" r="20" fill="#37367D"/>
</svg>
