<svg width="22" height="19" viewBox="0 0 22 19" fill="none" xmlns="http://www.w3.org/2000/svg">
<path d="M2.14453 8.73828C0.777346 8.73828 0.0937518 8.00586 0.093752 6.54101L0.0937523 2.61523C0.0937524 1.15039 0.777346 0.417967 2.14453 0.417967L6.71485 0.417967C8.08203 0.417967 8.76563 1.15039 8.76563 2.61523L8.76563 6.54101C8.76563 9.06055 8.59961 11.1699 8.26758 12.8691C7.93555 14.5879 7.08594 15.9746 5.71875 17.0293C4.72266 17.791 3.94141 17.8691 3.375 17.2637L2.26172 16.0625C1.55859 15.3203 1.66602 14.5879 2.58399 13.8652C3.20899 13.377 3.62891 12.7422 3.84375 11.9609C4.0586 11.1797 4.16602 10.1055 4.16602 8.73828L2.14453 8.73828ZM14.4492 8.73828C13.082 8.73828 12.3984 8.00586 12.3984 6.54101L12.3984 2.61523C12.3984 1.15039 13.082 0.417968 14.4492 0.417968L19.0195 0.417968C20.3867 0.417968 21.0703 1.15039 21.0703 2.61523L21.0703 6.54102C21.0703 9.06055 20.9043 11.1699 20.5723 12.8691C20.2402 14.5879 19.3906 15.9746 18.0234 17.0293C17.0273 17.791 16.2461 17.8691 15.6797 17.2637L14.5664 16.0625C13.8633 15.3203 13.9707 14.5879 14.8887 13.8652C15.5137 13.377 15.9336 12.7422 16.1484 11.9609C16.3633 11.1797 16.4707 10.1055 16.4707 8.73828L14.4492 8.73828Z" fill="white"/>
</svg>
