<svg width="240" height="206" viewBox="0 0 240 206" fill="none" xmlns="http://www.w3.org/2000/svg">
<g clip-path="url(#clip0_2058_53)">
<mask id="mask0_2058_53" style="mask-type:alpha" maskUnits="userSpaceOnUse" x="0" y="-25" width="189" height="231">
<rect y="-24.002" width="189" height="230" fill="black"/>
</mask>
<g mask="url(#mask0_2058_53)">
<path d="M42.505 30.3648H52.01V27.1813C52.01 25.4231 53.4284 23.998 55.1783 23.998C56.9282 23.998 58.3465 25.4231 58.3465 27.1813V30.3645H96.3666V27.1813C96.3666 25.4231 97.7849 23.998 99.5348 23.998C101.285 23.998 102.703 25.4231 102.703 27.1813V30.3645H140.723V27.1813C140.723 25.4231 142.141 23.998 143.891 23.998C145.641 23.998 147.06 25.4231 147.06 27.1813V30.3645H156.565C161.812 30.3701 166.064 34.6426 166.07 39.9145V100.398C166.07 102.156 164.651 103.581 162.901 103.581C161.152 103.581 159.733 102.156 159.733 100.398V39.9148C159.731 38.1578 158.314 36.7339 156.565 36.7316H147.06V43.6848C151.424 45.2352 154.042 49.7193 153.26 54.3036C152.477 58.888 148.521 62.2387 143.892 62.2387C139.262 62.2387 135.306 58.888 134.524 54.3036C133.741 49.7193 136.359 45.2352 140.724 43.6848V36.7313H102.703V43.6845C107.068 45.2349 109.686 49.7189 108.903 54.3033C108.121 58.8876 104.164 62.2383 99.5352 62.2383C94.9059 62.2383 90.9498 58.8876 90.1672 54.3033C89.3845 49.7189 92.0024 45.2349 96.367 43.6845V36.7313H58.3469V43.6845C62.7114 45.2349 65.3293 49.7189 64.5467 54.3033C63.764 58.8876 59.8079 62.2383 55.1786 62.2383C50.5494 62.2383 46.5933 58.8876 45.8106 54.3033C45.0279 49.7189 47.6459 45.2349 52.0104 43.6845V36.7313H42.5054C40.7566 36.7335 39.3394 38.1574 39.3372 39.9145V205.448C39.3394 207.205 40.7566 208.629 42.5054 208.631H156.566C158.314 208.629 159.732 207.205 159.734 205.448V160.881C159.734 159.123 161.152 157.698 162.902 157.698C164.652 157.698 166.07 159.123 166.07 160.881V205.448C166.065 210.72 161.812 214.992 156.565 214.998H42.505C37.2579 214.992 33.0056 210.72 33 205.448V39.9148C33.0056 34.6429 37.2579 30.3704 42.505 30.3648ZM143.892 55.8313C145.642 55.8313 147.06 54.4062 147.06 52.6481C147.06 50.8899 145.642 49.4648 143.892 49.4648C142.142 49.4648 140.724 50.8899 140.724 52.6481C140.726 54.4051 142.143 55.829 143.892 55.8313ZM99.5352 55.8313C101.285 55.8313 102.703 54.4062 102.703 52.6481C102.703 50.8899 101.285 49.4648 99.5352 49.4648C97.7853 49.4648 96.367 50.8899 96.367 52.6481C96.3692 54.4051 97.7864 55.829 99.5352 55.8313ZM55.1783 55.8313C56.9282 55.8313 58.3465 54.4062 58.3465 52.6481C58.3465 50.8899 56.9282 49.4648 55.1783 49.4648C53.4284 49.4648 52.01 50.8899 52.01 52.6481C52.0123 54.4051 53.4295 55.829 55.1783 55.8313Z" fill="url(#paint0_linear_2058_53)"/>
<path d="M143.892 90.848C143.818 90.848 143.742 90.8447 143.668 90.8402C142.752 90.7749 141.909 90.3131 141.358 89.5748L131.853 76.8416C131.174 75.9321 131.029 74.7276 131.474 73.6815C131.918 72.6355 132.884 71.9073 134.008 71.7712C135.131 71.635 136.242 72.1114 136.921 73.0209L144.236 82.8182L147.989 79.0475C149.229 77.8235 151.22 77.8328 152.449 79.0676C153.678 80.3024 153.687 82.3023 152.469 83.5486L146.132 89.9154C145.538 90.5127 144.732 90.8484 143.892 90.848Z" fill="url(#paint1_linear_2058_53)"/>
<path d="M152.469 118.565L146.132 124.932C145.538 125.53 144.732 125.865 143.892 125.865C143.817 125.865 143.742 125.862 143.667 125.857C142.751 125.792 141.909 125.33 141.358 124.592L131.853 111.858C130.803 110.452 131.086 108.457 132.485 107.402C133.885 106.347 135.871 106.632 136.921 108.038L144.235 117.835L147.989 114.064C149.229 112.84 151.219 112.85 152.448 114.084C153.678 115.32 153.687 117.319 152.469 118.565Z" fill="url(#paint2_linear_2058_53)"/>
<path d="M121.713 87.6648H48.8415C47.0916 87.6648 45.6732 86.2398 45.6732 84.4816C45.6732 82.7235 47.0916 81.2984 48.8415 81.2984H121.713C123.463 81.2984 124.882 82.7235 124.882 84.4816C124.882 86.2398 123.463 87.6648 121.713 87.6648Z" fill="url(#paint3_linear_2058_53)"/>
<path d="M121.713 122.681H48.8415C47.0916 122.681 45.6732 121.256 45.6732 119.498C45.6732 117.74 47.0916 116.315 48.8415 116.315H121.713C123.463 116.315 124.882 117.74 124.882 119.498C124.882 121.256 123.463 122.681 121.713 122.681Z" fill="url(#paint4_linear_2058_53)"/>
<path d="M121.713 157.698H48.8415C47.0916 157.698 45.6732 156.273 45.6732 154.515C45.6732 152.757 47.0916 151.332 48.8415 151.332H121.713C123.463 151.332 124.882 152.757 124.882 154.515C124.882 156.273 123.463 157.698 121.713 157.698Z" fill="url(#paint5_linear_2058_53)"/>
<path d="M121.713 192.715H48.8415C47.0916 192.715 45.6732 191.29 45.6732 189.532C45.6732 187.773 47.0916 186.348 48.8415 186.348H121.713C123.463 186.348 124.882 187.773 124.882 189.532C124.882 191.29 123.463 192.715 121.713 192.715Z" fill="url(#paint6_linear_2058_53)"/>
<path d="M145.276 154.442L142.963 156.765C142.165 157.579 140.994 157.9 139.895 157.607C138.796 157.313 137.938 156.451 137.646 155.347C137.354 154.243 137.674 153.066 138.484 152.264L140.738 149.999C140.802 143.825 143.147 137.895 147.317 133.36L174.842 103.4C176.537 101.559 178.868 100.44 181.358 100.272C181.543 100.258 181.72 100.209 181.907 100.206H181.908C183.905 100.19 185.862 100.76 187.54 101.846C188.1 102.214 188.621 102.639 189.094 103.114C192.86 106.877 192.981 112.96 189.368 116.871L162.168 146.477C157.776 151.229 151.721 154.084 145.276 154.442ZM184.712 112.553C185.668 111.513 185.92 110.004 185.356 108.707C184.792 107.41 183.517 106.572 182.108 106.57L182.034 106.572C181.069 106.587 180.152 107.002 179.5 107.718L177.181 110.242L182.2 115.287L184.712 112.553ZM172.879 114.923L151.974 137.678C149.382 140.491 147.721 144.043 147.221 147.843C151.173 147.116 154.784 145.122 157.512 142.159L177.9 119.968L172.879 114.923Z" fill="url(#paint7_linear_2058_53)"/>
</g>
</g>
<defs>
<linearGradient id="paint0_linear_2058_53" x1="83" y1="23.998" x2="173.22" y2="132.434" gradientUnits="userSpaceOnUse">
<stop stop-color="#71124D"/>
<stop offset="1" stop-color="#5049B0"/>
</linearGradient>
<linearGradient id="paint1_linear_2058_53" x1="83" y1="23.998" x2="173.22" y2="132.434" gradientUnits="userSpaceOnUse">
<stop stop-color="#71124D"/>
<stop offset="1" stop-color="#5049B0"/>
</linearGradient>
<linearGradient id="paint2_linear_2058_53" x1="83" y1="23.998" x2="173.22" y2="132.434" gradientUnits="userSpaceOnUse">
<stop stop-color="#71124D"/>
<stop offset="1" stop-color="#5049B0"/>
</linearGradient>
<linearGradient id="paint3_linear_2058_53" x1="83" y1="23.998" x2="173.22" y2="132.434" gradientUnits="userSpaceOnUse">
<stop stop-color="#71124D"/>
<stop offset="1" stop-color="#5049B0"/>
</linearGradient>
<linearGradient id="paint4_linear_2058_53" x1="83" y1="23.998" x2="173.22" y2="132.434" gradientUnits="userSpaceOnUse">
<stop stop-color="#71124D"/>
<stop offset="1" stop-color="#5049B0"/>
</linearGradient>
<linearGradient id="paint5_linear_2058_53" x1="83" y1="23.998" x2="173.22" y2="132.434" gradientUnits="userSpaceOnUse">
<stop stop-color="#71124D"/>
<stop offset="1" stop-color="#5049B0"/>
</linearGradient>
<linearGradient id="paint6_linear_2058_53" x1="83" y1="23.998" x2="173.22" y2="132.434" gradientUnits="userSpaceOnUse">
<stop stop-color="#71124D"/>
<stop offset="1" stop-color="#5049B0"/>
</linearGradient>
<linearGradient id="paint7_linear_2058_53" x1="83" y1="23.998" x2="173.22" y2="132.434" gradientUnits="userSpaceOnUse">
<stop stop-color="#71124D"/>
<stop offset="1" stop-color="#5049B0"/>
</linearGradient>
<clipPath id="clip0_2058_53">
<rect width="240" height="240" fill="white" transform="matrix(-1 0 0 1 240 -0.00195312)"/>
</clipPath>
</defs>
</svg>
