<svg width="86" height="72" viewBox="0 0 86 72" fill="none" xmlns="http://www.w3.org/2000/svg">
<path opacity="0.7" d="M80.7727 2.60511C80.7727 1.90435 81.0237 1.30303 81.5256 0.801135C82.0275 0.299241 82.6288 0.0482942 83.3295 0.0482942C84.0303 0.0482942 84.6316 0.299241 85.1335 0.801135C85.6354 1.30303 85.8864 1.90435 85.8864 2.60511C85.8864 3.30587 85.6354 3.9072 85.1335 4.40909C84.6316 4.91098 84.0303 5.16193 83.3295 5.16193C82.8655 5.16193 82.4394 5.04356 82.0511 4.80682C81.6629 4.57954 81.3504 4.27178 81.1136 3.88352C80.8864 3.50473 80.7727 3.0786 80.7727 2.60511ZM80.7727 24.8707C80.7727 24.17 81.0237 23.5687 81.5256 23.0668C82.0275 22.5649 82.6288 22.3139 83.3295 22.3139C84.0303 22.3139 84.6316 22.5649 85.1335 23.0668C85.6354 23.5687 85.8864 24.17 85.8864 24.8707C85.8864 25.5715 85.6354 26.1728 85.1335 26.6747C84.6316 27.1766 84.0303 27.4276 83.3295 27.4276C82.8655 27.4276 82.4394 27.3092 82.0511 27.0724C81.6629 26.8452 81.3504 26.5374 81.1136 26.1491C80.8864 25.7704 80.7727 25.3442 80.7727 24.8707ZM80.7727 47.1364C80.7727 46.4356 81.0237 45.8343 81.5256 45.3324C82.0275 44.8305 82.6288 44.5795 83.3295 44.5795C84.0303 44.5795 84.6316 44.8305 85.1335 45.3324C85.6354 45.8343 85.8864 46.4356 85.8864 47.1364C85.8864 47.8371 85.6354 48.4384 85.1335 48.9403C84.6316 49.4422 84.0303 49.6932 83.3295 49.6932C82.8655 49.6932 82.4394 49.5748 82.0511 49.3381C81.6629 49.1108 81.3504 48.803 81.1136 48.4148C80.8864 48.036 80.7727 47.6098 80.7727 47.1364ZM80.7727 69.402C80.7727 68.7012 81.0237 68.0999 81.5256 67.598C82.0275 67.0961 82.6288 66.8452 83.3295 66.8452C84.0303 66.8452 84.6316 67.0961 85.1335 67.598C85.6354 68.0999 85.8864 68.7012 85.8864 69.402C85.8864 70.1027 85.6354 70.7041 85.1335 71.206C84.6316 71.7079 84.0303 71.9588 83.3295 71.9588C82.8655 71.9588 82.4394 71.8404 82.0511 71.6037C81.6629 71.3764 81.3504 71.0687 81.1136 70.6804C80.8864 70.3016 80.7727 69.8755 80.7727 69.402ZM40.7727 2.60511C40.7727 1.90435 41.0237 1.30303 41.5256 0.801133C42.0275 0.299239 42.6288 0.0482924 43.3295 0.0482924C44.0303 0.0482925 44.6316 0.299239 45.1335 0.801133C45.6354 1.30303 45.8864 1.90435 45.8864 2.60511C45.8864 3.30587 45.6354 3.90719 45.1335 4.40909C44.6316 4.91098 44.0303 5.16193 43.3295 5.16193C42.8655 5.16193 42.4394 5.04356 42.0511 4.80681C41.6629 4.57954 41.3504 4.27178 41.1136 3.88352C40.8864 3.50473 40.7727 3.0786 40.7727 2.60511ZM40.7727 24.8707C40.7727 24.17 41.0237 23.5687 41.5256 23.0668C42.0275 22.5649 42.6288 22.3139 43.3295 22.3139C44.0303 22.3139 44.6316 22.5649 45.1335 23.0668C45.6354 23.5687 45.8864 24.17 45.8864 24.8707C45.8864 25.5715 45.6354 26.1728 45.1335 26.6747C44.6316 27.1766 44.0303 27.4276 43.3295 27.4276C42.8655 27.4276 42.4394 27.3092 42.0511 27.0724C41.6629 26.8452 41.3504 26.5374 41.1136 26.1491C40.8864 25.7704 40.7727 25.3442 40.7727 24.8707ZM40.7727 47.1364C40.7727 46.4356 41.0237 45.8343 41.5256 45.3324C42.0275 44.8305 42.6288 44.5795 43.3295 44.5795C44.0303 44.5795 44.6316 44.8305 45.1335 45.3324C45.6354 45.8343 45.8864 46.4356 45.8864 47.1364C45.8864 47.8371 45.6354 48.4384 45.1335 48.9403C44.6316 49.4422 44.0303 49.6932 43.3295 49.6932C42.8655 49.6932 42.4394 49.5748 42.0511 49.3381C41.6629 49.1108 41.3504 48.803 41.1136 48.4148C40.8864 48.036 40.7727 47.6098 40.7727 47.1364ZM40.7727 69.402C40.7727 68.7012 41.0237 68.0999 41.5256 67.598C42.0275 67.0961 42.6288 66.8452 43.3295 66.8452C44.0303 66.8452 44.6316 67.0961 45.1335 67.598C45.6354 68.0999 45.8864 68.7012 45.8864 69.402C45.8864 70.1027 45.6354 70.7041 45.1335 71.206C44.6316 71.7079 44.0303 71.9588 43.3295 71.9588C42.8655 71.9588 42.4394 71.8404 42.0511 71.6037C41.6629 71.3764 41.3504 71.0687 41.1136 70.6804C40.8864 70.3016 40.7727 69.8755 40.7727 69.402ZM0.772727 2.60511C0.772727 1.90435 1.02367 1.30303 1.52557 0.801132C2.02746 0.299238 2.62879 0.0482907 3.32955 0.0482907C4.0303 0.0482907 4.63163 0.299238 5.13352 0.801132C5.63542 1.30303 5.88636 1.90435 5.88636 2.60511C5.88636 3.30587 5.63542 3.90719 5.13352 4.40909C4.63163 4.91098 4.0303 5.16193 3.32955 5.16193C2.86553 5.16193 2.43939 5.04356 2.05114 4.80681C1.66288 4.57954 1.35038 4.27178 1.11364 3.88352C0.886363 3.50473 0.772727 3.07859 0.772727 2.60511ZM0.772726 24.8707C0.772726 24.17 1.02367 23.5687 1.52557 23.0668C2.02746 22.5649 2.62879 22.3139 3.32954 22.3139C4.0303 22.3139 4.63163 22.5649 5.13352 23.0668C5.63542 23.5687 5.88636 24.17 5.88636 24.8707C5.88636 25.5715 5.63542 26.1728 5.13352 26.6747C4.63163 27.1766 4.0303 27.4276 3.32954 27.4276C2.86553 27.4276 2.43939 27.3092 2.05114 27.0724C1.66288 26.8452 1.35038 26.5374 1.11364 26.1491C0.886362 25.7704 0.772726 25.3442 0.772726 24.8707ZM0.772725 47.1364C0.772725 46.4356 1.02367 45.8343 1.52557 45.3324C2.02746 44.8305 2.62879 44.5795 3.32954 44.5795C4.0303 44.5795 4.63163 44.8305 5.13352 45.3324C5.63541 45.8343 5.88636 46.4356 5.88636 47.1364C5.88636 47.8371 5.63541 48.4384 5.13352 48.9403C4.63163 49.4422 4.0303 49.6932 3.32954 49.6932C2.86553 49.6932 2.43939 49.5748 2.05113 49.3381C1.66288 49.1108 1.35038 48.803 1.11363 48.4148C0.886361 48.036 0.772725 47.6098 0.772725 47.1364ZM0.772724 69.402C0.772724 68.7012 1.02367 68.0999 1.52557 67.598C2.02746 67.0961 2.62878 66.8452 3.32954 66.8452C4.0303 66.8452 4.63163 67.0961 5.13352 67.598C5.63541 68.0999 5.88636 68.7012 5.88636 69.402C5.88636 70.1027 5.63541 70.7041 5.13352 71.206C4.63163 71.7079 4.0303 71.9588 3.32954 71.9588C2.86553 71.9588 2.43939 71.8404 2.05113 71.6037C1.66288 71.3764 1.35038 71.0687 1.11363 70.6804C0.88636 70.3016 0.772724 69.8755 0.772724 69.402Z" fill="#F33558"/>
</svg>
